<svg xmlns="http://www.w3.org/2000/svg" width="373.743" height="222" viewBox="0 0 373.743 222">
  <g id="Group_471" data-name="Group 471" transform="translate(-578 -268)">
    <circle id="Ellipse_508" data-name="Ellipse 508" cx="111" cy="111" r="111" transform="translate(654 268)" fill="#f7f7f7"/>
    <g id="undraw_booking_re_gw4j" transform="translate(643.239 288.595)">
      <path id="Path_1046" data-name="Path 1046" d="M849.5,324.55a.39.39,0,0,1-.04.1q-2.2,4.269-4.3,8.581c-.242.5-.484.994-.723,1.49v-2.459q.358-.738.723-1.475,1.622-3.287,3.3-6.545a.474.474,0,0,1,.043-.072C848.839,323.693,849.663,324.019,849.5,324.55Z" transform="translate(-601.794 -267.367)" fill="#fff"/>
      <g id="Group_472" data-name="Group 472">
        <path id="Path_1035" data-name="Path 1035" d="M898.239,500.531a25.113,25.113,0,0,1-7.988,5.652h0c-.282.134-.564.264-.85.387h0l0,0,0,0h0a0,0,0,0,1,0,0h-.006l0,0s0,0-.007,0l0,0,0,0h0s0,0-.007,0h0a50.549,50.549,0,0,1-6.169,2.206,85.579,85.579,0,0,1-38.01,1.985l-.723-.13V481.3c.239-.1.481-.2.723-.3q2.37-.982,4.8-1.8,3.493-1.193,7.084-2.047a76.724,76.724,0,0,1,23.882-1.931q2.186.163,4.361.47a32.893,32.893,0,0,1,9.015,2.441h0c.409.192.81.391,1.208.6a13.556,13.556,0,0,1,5.865,5.746,11.054,11.054,0,0,1,.984,2.889v.007c.072.347.123.7.163,1.045A16.069,16.069,0,0,1,898.239,500.531Z" transform="translate(-601.793 -363.799)" fill="#ffb703"/>
        <path id="Path_1036" data-name="Path 1036" d="M902.528,510.262a.5.5,0,0,1-.108.014q-9.292.407-18.558,1.208h-.011c-.025,0-.047,0-.072.007q-9.514.824-18.989,2.065c-.267.036-.532.072-.8.1q-6.552.873-13.08,1.938-2.88.472-5.75.984c-.242.043-.481.083-.723.13v-1.1c.242-.047.485-.087.723-.13q9.558-1.692,19.18-2.954,2.419-.325,4.846-.615,7.008-.846,14.038-1.461l1.027-.087q9-.765,18.023-1.161a.338.338,0,0,1,.087.007C902.944,509.267,903.067,510.135,902.528,510.262Z" transform="translate(-601.793 -385.64)" fill="#fff"/>
        <path id="Path_1037" data-name="Path 1037" d="M924,534.733a29.612,29.612,0,0,1-20.778-8.632,28.148,28.148,0,0,1-4.044-5.088c-.368-.59-1.229.061-.864.646A30.687,30.687,0,0,0,917.4,535.081a29.225,29.225,0,0,0,6.739.721C924.827,535.8,924.684,534.728,924,534.733Z" transform="translate(-636.126 -393.027)" fill="#fff"/>
        <path id="Path_1038" data-name="Path 1038" d="M857.047,480.95a.612.612,0,0,1-.452.409,23.59,23.59,0,0,0-5.092,1.989,24.737,24.737,0,0,0-6.339,4.792c-.1.1-.192.2-.282.3-.152.159-.3.322-.441.488v-1.577c.232-.246.474-.488.723-.72a26.008,26.008,0,0,1,4.8-3.631Q853.456,481.8,857.047,480.95Z" transform="translate(-601.793 -367.6)" fill="#fff"/>
        <path id="Path_1039" data-name="Path 1039" d="M963.329,482.789A25.1,25.1,0,0,0,951.6,493.126a.542.542,0,0,0,.287.707.552.552,0,0,0,.706-.287,23.886,23.886,0,0,1,11.137-9.758.539.539,0,0,0-.405-1Z" transform="translate(-670.178 -368.744)" fill="#fff"/>
        <path id="Path_1040" data-name="Path 1040" d="M909.741,366.09a25.067,25.067,0,0,1-4.448,8.715l0,0c-.185.246-.376.5-.575.734v0a50.368,50.368,0,0,1-4.488,4.842,84.414,84.414,0,0,1-19.3,13.789,80.836,80.836,0,0,1-35.764,9.413c-.094,0-.188,0-.282,0-.148,0-.3,0-.441,0V387.162c.235-.448.477-.9.723-1.342a79.38,79.38,0,0,1,11.583-15.846c.108-.119.22-.239.333-.354q2.538-2.68,5.323-5.1a76.237,76.237,0,0,1,24.333-14.411,32.745,32.745,0,0,1,9.116-2.025c.452-.025.9-.036,1.353-.033a13.577,13.577,0,0,1,7.865,2.365,11.208,11.208,0,0,1,2.213,2.1c.224.278.43.564.629.857v0A16.052,16.052,0,0,1,909.741,366.09Z" transform="translate(-601.793 -282.758)" fill="#ffb703"/>
        <path id="Path_1041" data-name="Path 1041" d="M907.912,361.186v0a.539.539,0,0,1-.087.061q-8.028,4.67-15.854,9.681l-.018.011a.614.614,0,0,1-.065.04q-8.044,5.153-15.861,10.653l-.658.463q-5.4,3.813-10.682,7.789-9.981,7.518-19.524,15.593c-.242.2-.481.409-.723.615v-1.407c.239-.206.481-.412.723-.615q3.656-3.086,7.377-6.086c.741-.6,1.486-1.193,2.231-1.783q9.927-7.9,20.3-15.217h0q2.04-1.438,4.086-2.85,5.815-4,11.76-7.815c.286-.184.575-.369.864-.553q7.61-4.86,15.42-9.4a.529.529,0,0,1,.08-.04C907.825,360.112,908.335,360.828,907.912,361.186Z" transform="translate(-601.793 -290.572)" fill="#fff"/>
        <path id="Path_1042" data-name="Path 1042" d="M959.044,419.907a29.611,29.611,0,0,1-22.41,2.008,28.145,28.145,0,0,1-5.945-2.627c-.6-.352-1.06.624-.465.973a30.687,30.687,0,0,0,23.137,3.021,29.221,29.221,0,0,0,6.3-2.492c.61-.326-.013-1.206-.62-.883Z" transform="translate(-656.379 -328.188)" fill="#fff"/>
        <path id="Path_1043" data-name="Path 1043" d="M868.886,416.781a24.792,24.792,0,0,1-.344-5.739,26.153,26.153,0,0,1,3.9-12.35q2.542-2.679,5.324-5.1a.617.617,0,0,1-.212.573,23.673,23.673,0,0,0-3.584,4.125,25,25,0,0,0-4.008,18.4.438.438,0,0,1-.113.413.587.587,0,0,1-.961-.324Z" transform="translate(-617.154 -311.831)" fill="#fff"/>
        <path id="Path_1044" data-name="Path 1044" d="M977.957,346.269a25.1,25.1,0,0,0-5.581,14.6.542.542,0,0,0,.582.493.552.552,0,0,0,.493-.582,23.885,23.885,0,0,1,5.329-13.814C979.219,346.428,978.4,345.73,977.957,346.269Z" transform="translate(-683.465 -281.498)" fill="#fff"/>
        <path id="Path_1045" data-name="Path 1045" d="M858.837,343.374v0c-.025.311-.054.618-.087.926v.007a51.124,51.124,0,0,1-1.175,6.495c-.253,1.049-.528,2.09-.828,3.132-.036.134-.076.268-.116.4v0a83,83,0,0,1-3.161,8.914,86.394,86.394,0,0,1-8.307,15.268c-.235.351-.477.7-.723,1.049v-56.63c.242-.014.481-.014.723-.007q.173,0,.347.011a10.965,10.965,0,0,1,2.994.582c.34.112.669.239.994.38a16.052,16.052,0,0,1,8.39,9.731A25.126,25.126,0,0,1,858.837,343.374Z" transform="translate(-601.793 -266.722)" fill="#ffb703"/>
        <path id="Path_1047" data-name="Path 1047" d="M858.953,379.834c-.065.116-.13.231-.2.347a28.866,28.866,0,0,1-3.768,5.15,31.068,31.068,0,0,1-9.818,7.149c-.239.116-.481.224-.723.325V391.63c.242-.109.485-.221.723-.336a29.244,29.244,0,0,0,12.791-11.868.595.595,0,0,1,.882-.17.417.417,0,0,1,.116.579Z" transform="translate(-601.793 -302.6)" fill="#fff"/>
      </g>
      <g id="Group_473" data-name="Group 473" transform="translate(-65.239 56.205)">
        <path id="Path_1035-2" data-name="Path 1035" d="M848.8,500.531a25.113,25.113,0,0,0,7.988,5.652h0c.282.134.564.264.85.387h0l0,0,0,0h0a0,0,0,0,0,0,0h.006l0,0s0,0,.007,0l0,0,0,0h0s0,0,.007,0h0a50.549,50.549,0,0,0,6.169,2.206,85.579,85.579,0,0,0,38.01,1.985l.723-.13V481.3c-.239-.1-.481-.2-.723-.3q-2.37-.982-4.8-1.8-3.493-1.193-7.084-2.047a76.723,76.723,0,0,0-23.882-1.931q-2.186.163-4.361.47a32.893,32.893,0,0,0-9.015,2.441h0c-.409.192-.81.391-1.208.6a13.556,13.556,0,0,0-5.865,5.746,11.054,11.054,0,0,0-.984,2.889v.007c-.072.347-.123.7-.163,1.045A16.069,16.069,0,0,0,848.8,500.531Z" transform="translate(-836.742 -420.004)" fill="#f5cd69"/>
        <path id="Path_1036-2" data-name="Path 1036" d="M844.785,510.262a.5.5,0,0,0,.108.014q9.292.407,18.558,1.208h.011c.025,0,.047,0,.072.007q9.514.824,18.989,2.065c.267.036.532.072.8.1q6.552.873,13.08,1.938,2.88.472,5.75.984c.242.043.481.083.723.13v-1.1c-.242-.047-.485-.087-.723-.13q-9.558-1.692-19.18-2.954-2.419-.325-4.846-.615-7.008-.846-14.038-1.461l-1.027-.087q-9-.765-18.023-1.161a.338.338,0,0,0-.087.007C844.37,509.267,844.247,510.135,844.785,510.262Z" transform="translate(-837.015 -441.845)" fill="#fff"/>
        <path id="Path_1037-2" data-name="Path 1037" d="M898.814,534.733a29.612,29.612,0,0,0,20.778-8.632,28.148,28.148,0,0,0,4.044-5.088c.368-.59,1.229.061.864.646a30.687,30.687,0,0,1-19.086,13.423,29.225,29.225,0,0,1-6.739.721C897.983,535.8,898.127,534.728,898.814,534.733Z" transform="translate(-878.18 -449.233)" fill="#fff"/>
        <path id="Path_1038-2" data-name="Path 1038" d="M844.441,480.95a.612.612,0,0,0,.452.409,23.59,23.59,0,0,1,5.092,1.989,24.737,24.737,0,0,1,6.339,4.792c.1.1.192.2.282.3.152.159.3.322.441.488v-1.577c-.232-.246-.474-.488-.723-.72a26.008,26.008,0,0,0-4.8-3.631Q848.032,481.8,844.441,480.95Z" transform="translate(-791.19 -423.805)" fill="#fff"/>
        <path id="Path_1039-2" data-name="Path 1039" d="M952.29,482.789a25.1,25.1,0,0,1,11.724,10.337.542.542,0,0,1-.287.707.552.552,0,0,1-.706-.287,23.886,23.886,0,0,0-11.137-9.758.539.539,0,0,1,.405-1Z" transform="translate(-936.937 -424.949)" fill="#fff"/>
        <path id="Path_1040-2" data-name="Path 1040" d="M845,366.09a25.067,25.067,0,0,0,4.448,8.715l0,0c.185.246.376.5.575.734v0a50.368,50.368,0,0,0,4.488,4.842,84.414,84.414,0,0,0,19.3,13.789,80.836,80.836,0,0,0,35.764,9.413c.094,0,.188,0,.282,0,.148,0,.3,0,.441,0V387.162c-.235-.448-.477-.9-.723-1.342a79.38,79.38,0,0,0-11.583-15.846c-.108-.119-.22-.239-.333-.354q-2.538-2.68-5.323-5.1A76.236,76.236,0,0,0,868,350.106a32.746,32.746,0,0,0-9.116-2.025c-.452-.025-.9-.036-1.353-.033a13.577,13.577,0,0,0-7.865,2.365,11.208,11.208,0,0,0-2.213,2.1c-.224.278-.43.564-.629.857v0A16.052,16.052,0,0,0,845,366.09Z" transform="translate(-844.44 -338.963)" fill="#f5cd69"/>
        <path id="Path_1041-2" data-name="Path 1041" d="M844.6,361.186v0a.539.539,0,0,0,.087.061q8.028,4.67,15.854,9.681l.018.011a.614.614,0,0,0,.065.04q8.044,5.153,15.861,10.653l.658.463q5.4,3.813,10.682,7.789,9.981,7.518,19.524,15.593c.242.2.481.409.723.615v-1.407c-.239-.206-.481-.412-.723-.615q-3.656-3.086-7.377-6.086c-.741-.6-1.486-1.193-2.231-1.783q-9.927-7.9-20.3-15.217h0q-2.04-1.438-4.086-2.85-5.815-4-11.76-7.815c-.286-.184-.575-.369-.864-.553q-7.61-4.86-15.42-9.4a.529.529,0,0,0-.08-.04C844.684,360.112,844.174,360.828,844.6,361.186Z" transform="translate(-842.211 -346.777)" fill="#fff"/>
        <path id="Path_1042-2" data-name="Path 1042" d="M930.817,419.907a29.611,29.611,0,0,0,22.41,2.008,28.145,28.145,0,0,0,5.945-2.627c.6-.352,1.06.624.465.973a30.687,30.687,0,0,1-23.137,3.021,29.221,29.221,0,0,1-6.3-2.492c-.61-.326.013-1.206.62-.883Z" transform="translate(-924.978 -384.394)" fill="#fff"/>
        <path id="Path_1043-2" data-name="Path 1043" d="M877.389,416.781a24.792,24.792,0,0,0,.344-5.739,26.153,26.153,0,0,0-3.9-12.35q-2.542-2.679-5.324-5.1a.617.617,0,0,0,.212.573,23.673,23.673,0,0,1,3.584,4.125,25,25,0,0,1,4.008,18.4.438.438,0,0,0,.113.413.587.587,0,0,0,.961-.324Z" transform="translate(-820.616 -368.036)" fill="#fff"/>
        <path id="Path_1044-2" data-name="Path 1044" d="M973.325,346.269a25.1,25.1,0,0,1,5.581,14.6.542.542,0,0,1-.582.493.552.552,0,0,1-.493-.582,23.885,23.885,0,0,0-5.329-13.814C972.063,346.428,972.885,345.73,973.325,346.269Z" transform="translate(-959.312 -337.703)" fill="#fff"/>
        <path id="Path_1045-2" data-name="Path 1045" d="M844.546,343.374v0c.025.311.054.618.087.926v.007a51.122,51.122,0,0,0,1.175,6.495c.253,1.049.528,2.09.828,3.132.036.134.076.268.116.4v0a83,83,0,0,0,3.161,8.914,86.394,86.394,0,0,0,8.307,15.268c.235.351.477.7.723,1.049v-56.63c-.242-.014-.481-.014-.723-.007q-.173,0-.347.011a10.965,10.965,0,0,0-2.994.582c-.34.112-.669.239-.994.38a16.052,16.052,0,0,0-8.39,9.731A25.126,25.126,0,0,0,844.546,343.374Z" transform="translate(-793.086 -322.927)" fill="#f5cd69"/>
        <path id="Path_1047-2" data-name="Path 1047" d="M844.511,379.834c.065.116.13.231.2.347a28.866,28.866,0,0,0,3.768,5.15,31.068,31.068,0,0,0,9.818,7.149c.239.116.481.224.723.325V391.63c-.242-.109-.485-.221-.723-.336a29.244,29.244,0,0,1-12.791-11.868.595.595,0,0,0-.882-.17.417.417,0,0,0-.116.579Z" transform="translate(-793.166 -358.805)" fill="#fff"/>
      </g>
      <path id="Path_1048" data-name="Path 1048" d="M416.812,179.434v27.483h-.723v-.293H174.164v.293h-.723V179.434A11.945,11.945,0,0,1,185.374,167.5h219.5A11.945,11.945,0,0,1,416.812,179.434Z" transform="translate(-173.441 -167.5)" fill="#0603af"/>
      <path id="Path_1049" data-name="Path 1049" d="M404.879,167.5h-219.5a11.945,11.945,0,0,0-11.933,11.934V336.377a11.945,11.945,0,0,0,11.933,11.934h219.5a11.945,11.945,0,0,0,11.934-11.934V179.434A11.945,11.945,0,0,0,404.879,167.5Zm11.21,168.877a11.225,11.225,0,0,1-11.21,11.21h-219.5a11.225,11.225,0,0,1-11.21-11.21V179.434a11.225,11.225,0,0,1,11.21-11.21h219.5a11.225,11.225,0,0,1,11.21,11.21Z" transform="translate(-173.441 -167.5)" fill="#3f3d56"/>
      <circle id="Ellipse_509" data-name="Ellipse 509" cx="7.232" cy="7.232" r="7.232" transform="translate(41.948 12.476)" fill="#fff"/>
      <circle id="Ellipse_510" data-name="Ellipse 510" cx="7.232" cy="7.232" r="7.232" transform="translate(186.958 12.476)" fill="#fff"/>
      <path id="Path_1050" data-name="Path 1050" d="M279.138,384.831H236.114a6.883,6.883,0,0,1-6.875-6.875V357.621a6.883,6.883,0,0,1,6.875-6.875h43.024a6.883,6.883,0,0,1,6.875,6.875v20.335A6.883,6.883,0,0,1,279.138,384.831Z" transform="translate(-209.061 -284.481)" fill="#ffb703"/>
      <path id="Path_1051" data-name="Path 1051" d="M481.536,384.831H438.512a6.883,6.883,0,0,1-6.875-6.875V357.621a6.883,6.883,0,0,1,6.875-6.875h43.024a6.883,6.883,0,0,1,6.875,6.875v20.335A6.883,6.883,0,0,1,481.536,384.831Z" transform="translate(-338.268 -284.481)" fill="#ffb703"/>
      <path id="Path_1052" data-name="Path 1052" d="M481.168,529.387H438.144a7.091,7.091,0,0,1-7.083-7.083V501.968a7.091,7.091,0,0,1,7.083-7.083h43.024a7.091,7.091,0,0,1,7.083,7.083V522.3A7.091,7.091,0,0,1,481.168,529.387Z" transform="translate(-337.9 -376.496)" fill="#dddada"/>
      <path id="Path_1053" data-name="Path 1053" d="M278.38,529.387H235.355a7.091,7.091,0,0,1-7.083-7.083V501.968a7.091,7.091,0,0,1,7.083-7.083H278.38a7.091,7.091,0,0,1,7.083,7.083V522.3a7.091,7.091,0,0,1-7.083,7.083Z" transform="translate(-208.444 -376.496)" fill="#dddada"/>
      <path id="Path_1054" data-name="Path 1054" d="M683.567,529.387H640.543a7.091,7.091,0,0,1-7.083-7.083V501.968a7.091,7.091,0,0,1,7.083-7.083h43.024a7.091,7.091,0,0,1,7.083,7.083V522.3A7.091,7.091,0,0,1,683.567,529.387Z" transform="translate(-467.107 -376.496)" fill="#dddada"/>
      <path id="Path_1055" data-name="Path 1055" d="M683.567,384.208H640.543a7.091,7.091,0,0,1-7.083-7.083V356.79a7.091,7.091,0,0,1,7.083-7.083h43.024a7.091,7.091,0,0,1,7.083,7.083v20.335A7.091,7.091,0,0,1,683.567,384.208Z" transform="translate(-467.107 -283.817)" fill="#dddada"/>
    </g>
  </g>
</svg>
