<svg xmlns="http://www.w3.org/2000/svg" width="222" height="222" viewBox="0 0 222 222">
  <g id="Group_474" data-name="Group 474" transform="translate(-672 -268)">
    <circle id="Ellipse_508" data-name="Ellipse 508" cx="111" cy="111" r="111" transform="translate(672 268)" fill="#f7f7f7"/>
    <g id="undraw_empty_cart_co35" transform="translate(672 292)">
      <path id="Path_1015" data-name="Path 1015" d="M187.792,750.724c3.074,5.7,9.6,8.148,9.6,8.148s1.54-6.8-1.534-12.5-9.6-8.148-9.6-8.148S184.719,745.023,187.792,750.724Z" transform="translate(-177.495 -574.439)" fill="#2f2e41"/>
      <path id="Path_1016" data-name="Path 1016" d="M164.411,774.056c5.55,3.339,7.687,9.971,7.687,9.971s-6.861,1.219-12.41-2.12S152,771.936,152,771.936,158.861,770.718,164.411,774.056Z" transform="translate(-152 -599.647)" fill="#ffb703"/>
      <rect id="Rectangle_312" data-name="Rectangle 312" width="34.627" height="0.495" transform="translate(102.211 8.881)" fill="#f2f2f2"/>
      <rect id="Rectangle_313" data-name="Rectangle 313" width="0.495" height="4.576" transform="translate(126.944 9.252)" fill="#f2f2f2"/>
      <rect id="Rectangle_314" data-name="Rectangle 314" width="0.495" height="4.576" transform="translate(111.857 9.252)" fill="#f2f2f2"/>
      <rect id="Rectangle_315" data-name="Rectangle 315" width="34.627" height="0.495" transform="translate(119.772 32.626)" fill="#f2f2f2"/>
      <rect id="Rectangle_316" data-name="Rectangle 316" width="0.495" height="4.576" transform="translate(129.17 28.174)" fill="#f2f2f2"/>
      <rect id="Rectangle_317" data-name="Rectangle 317" width="0.495" height="4.576" transform="translate(144.258 28.174)" fill="#f2f2f2"/>
      <rect id="Rectangle_318" data-name="Rectangle 318" width="34.627" height="0.495" transform="translate(165.776 43.756)" fill="#f2f2f2"/>
      <rect id="Rectangle_319" data-name="Rectangle 319" width="0.495" height="4.576" transform="translate(175.175 39.304)" fill="#f2f2f2"/>
      <rect id="Rectangle_320" data-name="Rectangle 320" width="0.495" height="4.576" transform="translate(190.262 39.304)" fill="#f2f2f2"/>
      <rect id="Rectangle_321" data-name="Rectangle 321" width="34.627" height="0.495" transform="translate(162.313 158.519)" fill="#f2f2f2"/>
      <rect id="Rectangle_322" data-name="Rectangle 322" width="0.495" height="4.576" transform="translate(171.712 154.067)" fill="#f2f2f2"/>
      <rect id="Rectangle_323" data-name="Rectangle 323" width="0.495" height="4.576" transform="translate(186.8 154.067)" fill="#f2f2f2"/>
      <rect id="Rectangle_324" data-name="Rectangle 324" width="34.627" height="0.495" transform="translate(103.201 79.125)" fill="#f2f2f2"/>
      <rect id="Rectangle_325" data-name="Rectangle 325" width="0.495" height="4.576" transform="translate(112.599 74.673)" fill="#f2f2f2"/>
      <rect id="Rectangle_326" data-name="Rectangle 326" width="0.495" height="4.576" transform="translate(127.686 74.673)" fill="#f2f2f2"/>
      <rect id="Rectangle_327" data-name="Rectangle 327" width="34.627" height="0.495" transform="translate(114.083 138.733)" fill="#f2f2f2"/>
      <rect id="Rectangle_328" data-name="Rectangle 328" width="0.495" height="4.576" transform="translate(123.482 134.28)" fill="#f2f2f2"/>
      <rect id="Rectangle_329" data-name="Rectangle 329" width="0.495" height="4.576" transform="translate(138.569 134.28)" fill="#f2f2f2"/>
      <rect id="Rectangle_330" data-name="Rectangle 330" width="34.627" height="0.495" transform="translate(169.486 120.677)" fill="#f2f2f2"/>
      <rect id="Rectangle_331" data-name="Rectangle 331" width="0.495" height="4.576" transform="translate(178.885 116.225)" fill="#f2f2f2"/>
      <rect id="Rectangle_332" data-name="Rectangle 332" width="0.495" height="4.576" transform="translate(193.972 116.225)" fill="#f2f2f2"/>
      <path id="Path_1017" data-name="Path 1017" d="M183.84,621.772H125.274v-.421h58.144V600.915H130.2l-2.585-5.386.38-.182,2.471,5.147H183.84Z" transform="translate(-94.289 -448.096)" fill="#2f2e41"/>
      <circle id="Ellipse_504" data-name="Ellipse 504" cx="4.424" cy="4.424" r="4.424" transform="translate(34.355 175.15)" fill="#3f3d56"/>
      <circle id="Ellipse_505" data-name="Ellipse 505" cx="4.424" cy="4.424" r="4.424" transform="translate(77.964 175.15)" fill="#3f3d56"/>
      <circle id="Ellipse_506" data-name="Ellipse 506" cx="2.739" cy="2.739" r="2.739" transform="translate(131.052 82.877)" fill="#3f3d56"/>
      <path id="Path_1018" data-name="Path 1018" d="M295.72,524.088H229.892l-14.244-46.557h94.741l-.086.274Zm-65.516-.421h65.207l14.4-45.715h-93.6Z" transform="translate(-199.906 -378.222)" fill="#2f2e41"/>
      <path id="Path_1019" data-name="Path 1019" d="M152.59,454.306H94.771L82.26,413.015h83.214l-.076.243Z" transform="translate(-61.914 -310.862)" fill="#f2f2f2"/>
      <path id="Path_1020" data-name="Path 1020" d="M450.225,352.481l-.407-.108,2.78-10.479h16.173v.421H452.923Z" transform="translate(-338.562 -257.331)" fill="#2f2e41"/>
      <rect id="Rectangle_333" data-name="Rectangle 333" width="85.403" height="0.421" transform="translate(20.345 113.424)" fill="#2f2e41"/>
      <rect id="Rectangle_334" data-name="Rectangle 334" width="75.764" height="0.421" transform="translate(25.094 128.947)" fill="#2f2e41"/>
      <rect id="Rectangle_335" data-name="Rectangle 335" width="0.421" height="46.136" transform="translate(62.901 99.52)" fill="#2f2e41"/>
      <rect id="Rectangle_336" data-name="Rectangle 336" width="46.234" height="0.421" transform="matrix(0.065, -0.998, 0.998, 0.065, 79.162, 145.642)" fill="#2f2e41"/>
      <rect id="Rectangle_337" data-name="Rectangle 337" width="0.421" height="46.234" transform="translate(43.625 99.533) rotate(-3.729)" fill="#2f2e41"/>
      <rect id="Rectangle_338" data-name="Rectangle 338" width="222" height="1" transform="translate(0 184)" fill="#2f2e41"/>
      <path id="Path_1021" data-name="Path 1021" d="M747.411,135.749s3.616,10.291,1.391,11.874,7.509,14.513,7.509,14.513l11.681-3.166-6.4-10.818s-.834-10.818-.834-12.4S747.411,135.749,747.411,135.749Z" transform="translate(-600.145 -120.445)" fill="#a0616a"/>
      <path id="Path_1022" data-name="Path 1022" d="M747.411,135.749s3.616,10.291,1.391,11.874,7.509,14.513,7.509,14.513l11.681-3.166-6.4-10.818s-.834-10.818-.834-12.4S747.411,135.749,747.411,135.749Z" transform="translate(-600.145 -120.445)" fill="#ffc28d" opacity="0.9"/>
      <path id="Path_1023" data-name="Path 1023" d="M721.446,410.783s-1.055,13.193,0,20.054,2.639,25.859,2.639,25.859,0,35.886,5.8,36.413,10.027,1.055,10.555-1.055-2.639-3.166-1.055-4.222,2.111-4.75,0-8.971,0-46.968,0-46.968l10.027,26.914s1.055,22.165,2.111,25.331-1.055,8.971,2.639,9.5,7.916-2.639,10.027-3.694-3.166-1.055-2.111-1.583,4.222-2.111,3.166-2.639-2.111-25.859-2.111-25.859-2.9-54.092-6.6-56.2-6.069,1.525-6.069,1.525Z" transform="translate(-580.249 -322.125)" fill="#0603af"/>
      <path id="Path_1024" data-name="Path 1024" d="M754.855,758.784v4.222s-4.75,11.476,0,11.476,8.444,1.189,8.444-.394V759.839Z" transform="translate(-604.159 -589.911)" fill="#2f2e41"/>
      <path id="Path_1025" data-name="Path 1025" d="M861.47,758.754v4.222s4.75,11.476,0,11.476-8.444,1.189-8.444-.394V759.809Z" transform="translate(-679.638 -589.888)" fill="#2f2e41"/>
      <circle id="Ellipse_507" data-name="Ellipse 507" cx="9.499" cy="9.499" r="9.499" transform="translate(145.155 3.958)" fill="#ffc28d"/>
      <path id="Path_1026" data-name="Path 1026" d="M762.335,201.9s2.639,7.916,6.86,6.333l4.222-1.583,7.388,50.662s-5.805,8.444-14.249,3.166S762.335,201.9,762.335,201.9Z" transform="translate(-610.583 -170.764)" fill="#fb8500"/>
      <path id="Path_1027" data-name="Path 1027" d="M795.418,180.243l2.375-5.013s13.985,6.6,16.1,8.708A8.242,8.242,0,0,1,816,189.214l-3.694,13.193s1.055,29.025,1.055,30.08,3.694,6.86,1.056,4.75-3.166-4.222-5.277-1.055-6.86,6.86-6.86,6.86Z" transform="translate(-636.278 -150.69)" fill="#ffb703"/>
      <path id="Path_1028" data-name="Path 1028" d="M841.864,349.122,840.281,363.9s-9.5,8.444-7.388,8.971a2.921,2.921,0,0,0,3.166-1.583s3.694,3.694,5.8,1.583,7.388-22.165,7.388-22.165Z" transform="translate(-664.253 -281.573)" fill="#ffc28d"/>
      <path id="Path_1029" data-name="Path 1029" d="M744.563,76.046c-2.106-.075-4.359-.113-6.135,1.022a8.982,8.982,0,0,0-2.12,2.076c-1.729,2.186-3.223,4.937-2.581,7.649l.746-.291A4.885,4.885,0,0,1,734,88.6c.1-.305.457.188.363.5l-.822,2.7a2.538,2.538,0,0,1,3.237,1.932c.094-3.132.419-6.722,2.959-8.556a10.235,10.235,0,0,1,4.462-1.458,8.976,8.976,0,0,1,4.326.022,3.112,3.112,0,0,1,2.24,3.307,1.473,1.473,0,0,1,1.661.818,4.3,4.3,0,0,1,.34,1.968c.677.479,1.448-.472,1.724-1.254a11.321,11.321,0,0,0,.875-5.707c-.349-1.916-1.91-3.747-3.858-3.753a1.353,1.353,0,0,0,.352-.952l-1.605-.136a1.774,1.774,0,0,0,1.06-.559C750.672,78.17,745.605,76.084,744.563,76.046Z" transform="translate(-589.707 -76.014)" fill="#2f2e41"/>
      <path id="Path_1030" data-name="Path 1030" d="M710.323,177.037s-4.3-4.21-5.842-3.952-3.657,3.952-3.657,3.952-12.666,4.222-12.138,8.444,6.333,24.8,6.333,24.8,4.75,24.8.528,27.442,20.054,9.5,20.581,6.333,1.583-34.83,0-39.58S710.323,177.037,710.323,177.037Z" transform="translate(-555.932 -149.068)" fill="#ffb703"/>
      <path id="Path_1031" data-name="Path 1031" d="M850.893,223.236h6.525s4.557,20.054,5.085,22.165,1.583,12.138,1.055,12.138-11.082-2.111-11.082-.528Z" transform="translate(-678.032 -186.823)" fill="#ffc73a"/>
      <path id="Path_1032" data-name="Path 1032" d="M768.182,325.415H743.2c-2.438-11.214-2.641-22.049,0-32.4h24.981C764.151,303.18,763.9,313.94,768.182,325.415Z" transform="translate(-595.542 -239.342)" fill="#f2f2f2"/>
      <path id="Path_1033" data-name="Path 1033" d="M707.938,354.068l7.388,3.166s14.249,2.111,14.249-3.694-14.249-2.639-14.249-2.639l-4.75-1.519Z" transform="translate(-570.435 -281.769)" fill="#ffc28d"/>
      <path id="Path_1034" data-name="Path 1034" d="M679.181,210.435l-6.333,1.583-4.75,27.969s-1.583,7.388,1.055,7.916,10.027,4.75,10.027,4.75,1.055-7.916,3.166-7.916l-5.277-4.222,3.166-18.471Z" transform="translate(-540.095 -177.188)" fill="#ffc83d"/>
      <rect id="Rectangle_339" data-name="Rectangle 339" width="34.627" height="0.495" transform="translate(14.902 87.287)" fill="#f2f2f2"/>
      <rect id="Rectangle_340" data-name="Rectangle 340" width="0.495" height="4.576" transform="translate(24.3 82.835)" fill="#f2f2f2"/>
      <rect id="Rectangle_341" data-name="Rectangle 341" width="0.495" height="4.576" transform="translate(39.388 82.835)" fill="#f2f2f2"/>
      <rect id="Rectangle_342" data-name="Rectangle 342" width="34.627" height="0.495" transform="translate(27.021 14.075)" fill="#f2f2f2"/>
      <rect id="Rectangle_343" data-name="Rectangle 343" width="0.495" height="4.576" transform="translate(51.755 14.446)" fill="#f2f2f2"/>
      <rect id="Rectangle_344" data-name="Rectangle 344" width="0.495" height="4.576" transform="translate(36.667 14.446)" fill="#f2f2f2"/>
      <rect id="Rectangle_345" data-name="Rectangle 345" width="34.627" height="0.495" transform="translate(61.895 62.801)" fill="#f2f2f2"/>
      <rect id="Rectangle_346" data-name="Rectangle 346" width="0.495" height="4.576" transform="translate(86.629 63.172)" fill="#f2f2f2"/>
      <rect id="Rectangle_347" data-name="Rectangle 347" width="0.495" height="4.576" transform="translate(71.542 63.172)" fill="#f2f2f2"/>
      <rect id="Rectangle_348" data-name="Rectangle 348" width="34.627" height="0.495" transform="translate(3.029 62.553)" fill="#f2f2f2"/>
      <rect id="Rectangle_349" data-name="Rectangle 349" width="0.495" height="4.576" transform="translate(27.763 62.924)" fill="#f2f2f2"/>
      <rect id="Rectangle_350" data-name="Rectangle 350" width="0.495" height="4.576" transform="translate(12.676 62.924)" fill="#f2f2f2"/>
      <rect id="Rectangle_351" data-name="Rectangle 351" width="34.627" height="0.495" transform="translate(44.582 37.82)" fill="#f2f2f2"/>
      <rect id="Rectangle_352" data-name="Rectangle 352" width="0.495" height="4.576" transform="translate(53.981 33.368)" fill="#f2f2f2"/>
      <rect id="Rectangle_353" data-name="Rectangle 353" width="0.495" height="4.576" transform="translate(69.068 33.368)" fill="#f2f2f2"/>
    </g>
  </g>
</svg>
