<svg xmlns="http://www.w3.org/2000/svg" width="51.701" height="33.236" viewBox="0 0 51.701 33.236">
  <g id="up-arrow-svgrepo-com_1_" data-name="up-arrow-svgrepo-com (1)" transform="translate(0 0)">
    <path id="Path_828" data-name="Path 828" d="M206.682,102.508a5.539,5.539,0,1,1,5.539-5.539,5.539,5.539,0,0,1-5.539,5.539" transform="translate(-180.832 -69.271)" fill="#fb8500"/>
    <path id="Path_829" data-name="Path 829" d="M106.111,212.222a5.539,5.539,0,1,1,5.539-5.539,5.539,5.539,0,0,1-5.539,5.539" transform="translate(-90.416 -190.064)" fill="#fb8500"/>
    <path id="Path_830" data-name="Path 830" d="M5.539,321.936a5.539,5.539,0,1,1,5.539-5.539,5.539,5.539,0,0,1-5.539,5.539" transform="translate(0 -310.857)" fill="#fb8500"/>
    <path id="Path_831" data-name="Path 831" d="M307.253,212.222a5.539,5.539,0,1,1,5.539-5.539,5.539,5.539,0,0,1-5.539,5.539" transform="translate(-271.247 -190.064)" fill="#fb8500"/>
    <path id="Path_832" data-name="Path 832" d="M407.825,321.936a5.539,5.539,0,1,1,5.539-5.539,5.539,5.539,0,0,1-5.539,5.539" transform="translate(-361.664 -310.857)" fill="#fb8500"/>
  </g>
</svg>
