<svg xmlns="http://www.w3.org/2000/svg" width="452.507" height="389.449" viewBox="0 0 452.507 389.449">
  <g id="undraw_new_message_re_fp03" transform="translate(0 0)">
    <path id="Path_963" data-name="Path 963" d="M488.688,239.585c-3.637-19.468,2.089-41.616,18.007-53.4a91.248,91.248,0,0,0,19.023,59.69c5.109,6.549,11.474,13.3,11.276,21.6-.123,5.167-2.917,9.98-6.6,13.606s-8.219,6.241-12.7,8.814l-.7,1.085C503.857,276.166,492.325,259.053,488.688,239.585Z" transform="translate(-344.159 -185.809)" fill="#fb8500"/>
    <path id="Path_1341" data-name="Path 1341" d="M2.267,0H8l.667,10.7H.133Z" transform="translate(380.007 138.075)" fill="#f2a2a2"/>
    <path id="Path_964" data-name="Path 964" d="M511.158,186.348a77.993,77.993,0,0,0-5.149,47.709,33.588,33.588,0,0,0,3.556,9.9,19.264,19.264,0,0,0,7.277,7.059c2.778,1.605,5.8,2.925,8.144,5.177a11.8,11.8,0,0,1,3.472,9c-.112,4.142-1.706,8-3.4,11.712-1.876,4.125-3.89,8.381-3.768,13.019.015.562-.858.552-.873-.009-.212-8.069,5.622-14.55,6.922-22.293.607-3.613.128-7.431-2.412-10.231-2.221-2.449-5.342-3.813-8.168-5.414a20.556,20.556,0,0,1-7.373-6.637,31.049,31.049,0,0,1-3.924-9.731,75.665,75.665,0,0,1-1.715-23.587,79.377,79.377,0,0,1,6.656-26.126c.229-.511.976-.06.749.448Z" transform="translate(-348.332 -185.675)" fill="#fff"/>
    <path id="Path_965" data-name="Path 965" d="M500.671,241.021a11.7,11.7,0,0,1-12.208-8.975c-.128-.547.716-.771.844-.223a10.835,10.835,0,0,0,11.373,8.326c.56-.042.548.831-.009.873Z" transform="translate(-344.374 -197.743)" fill="#fff"/>
    <path id="Path_966" data-name="Path 966" d="M519.52,267.858a22.553,22.553,0,0,0,5.653-15.434c-.013-.562.86-.552.873.009a23.459,23.459,0,0,1-5.915,16.048c-.374.42-.983-.205-.611-.624Z" transform="translate(-352.524 -203.141)" fill="#fff"/>
    <path id="Path_967" data-name="Path 967" d="M506.047,209.091a6.624,6.624,0,0,0,5.884-2.209c.369-.425.977.2.611.624a7.422,7.422,0,0,1-6.5,2.458.451.451,0,0,1-.432-.441.439.439,0,0,1,.441-.432Z" transform="translate(-348.891 -191.222)" fill="#fff"/>
    <path id="Path_968" data-name="Path 968" d="M582.041,208.044c-.223.272-.445.544-.666.823a87.226,87.226,0,0,0-7.983,11.682c-.186.314-.37.636-.546.955a91.958,91.958,0,0,0-10.73,32.111,89.3,89.3,0,0,0-.819,13.544c.1,6.255.7,13.028-1.215,18.781a15.307,15.307,0,0,1-.69,1.766l-30.765,9.8c-.081-.013-.16-.019-.242-.031l-1.211.448c-.02-.233-.036-.476-.056-.709-.012-.135-.017-.273-.03-.408-.006-.091-.011-.182-.022-.264,0-.03,0-.061,0-.084-.011-.082-.012-.159-.02-.233-.091-1.355-.176-2.712-.246-4.073,0-.007,0-.007,0-.016a131.311,131.311,0,0,1,1.722-31c.058-.3.113-.616.185-.925a85.221,85.221,0,0,1,3.768-13.386,75.327,75.327,0,0,1,3.038-6.991,62.644,62.644,0,0,1,11.372-15.948c9.178-9.341,21.242-15.644,34.168-15.842C581.384,208.044,581.708,208.042,582.041,208.044Z" transform="translate(-354.412 -191.565)" fill="#fb8500"/>
    <path id="Path_969" data-name="Path 969" d="M582.267,208.3a77.993,77.993,0,0,0-32.835,34.993,33.585,33.585,0,0,0-3.123,10.049,19.262,19.262,0,0,0,1.561,10.017c1.252,2.954,2.874,5.831,3.385,9.037a11.8,11.8,0,0,1-2.646,9.276c-2.583,3.24-6.177,5.358-9.763,7.308-3.981,2.165-8.151,4.35-10.847,8.126-.327.458-1.018-.076-.691-.533,4.689-6.57,13.249-8.232,18.949-13.632,2.66-2.52,4.576-5.856,4.234-9.621-.3-3.293-1.969-6.261-3.263-9.241a20.554,20.554,0,0,1-1.891-9.738,31.05,31.05,0,0,1,2.725-10.132,75.667,75.667,0,0,1,12.832-19.865,79.376,79.376,0,0,1,21.044-16.853c.491-.271.815.54.328.809Z" transform="translate(-354.583 -191.404)" fill="#fff"/>
    <path id="Path_970" data-name="Path 970" d="M558.141,244.163a11.7,11.7,0,0,1-4.344-14.516c.227-.513,1.036-.184.808.33a10.835,10.835,0,0,0,4.068,13.495c.473.3-.063.993-.533.691Z" transform="translate(-361.32 -197.186)" fill="#fff"/>
    <path id="Path_971" data-name="Path 971" d="M553.991,278.173a22.553,22.553,0,0,0,13.806-8.919c.328-.456,1.019.077.691.533a23.459,23.459,0,0,1-14.385,9.252c-.552.111-.661-.756-.112-.866Z" transform="translate(-361.536 -207.636)" fill="#fff"/>
    <path id="Path_972" data-name="Path 972" d="M581.494,222.575a6.623,6.623,0,0,0,6.028,1.779c.55-.117.659.749.112.866a7.422,7.422,0,0,1-6.673-1.953.451.451,0,0,1-.079-.612.439.439,0,0,1,.612-.079Z" transform="translate(-368.69 -195.368)" fill="#fff"/>
    <path id="Path_973" data-name="Path 973" d="M722.552,384.088a6.972,6.972,0,0,1,.158,1.085l28.415,16.392,6.907-3.976,7.363,9.639-11.542,8.227a5.292,5.292,0,0,1-6.349-.155l-29.3-23.116a6.943,6.943,0,1,1,4.35-8.1Z" transform="translate(-402.408 -236.509)" fill="#ffb6b6"/>
    <path id="Path_974" data-name="Path 974" d="M766.748,403.4a2.973,2.973,0,0,1,1.485-1.985l13.119-7.148a8.267,8.267,0,1,1,9.994,13.17l-10.514,10.681a2.977,2.977,0,0,1-4.5-.3l-9.052-12a2.973,2.973,0,0,1-.533-2.421Z" transform="translate(-417.636 -240.159)" fill="#070585"/>
    <path id="Path_975" data-name="Path 975" d="M797.261,346.574c1.888-6.015,6.18-11.532,12.116-13.566s14.629,1.064,19.092,5.512c8.163,8.136,8.415,18.1,2.806,26.928-1.116-.059-4.965-.1-6.094-.145l-1.6-5.323v5.271c-8.813-.272-17.988-.1-27.168.075C795.593,359.071,795.373,352.589,797.261,346.574Z" transform="translate(-426.305 -222.302)" fill="#2f2e41"/>
    <path id="Path_976" data-name="Path 976" d="M498.041,496.85H490l-3.824-31h11.864Z" transform="translate(-128.018 -122.663)" fill="#ffb6b6"/>
    <path id="Path_977" data-name="Path 977" d="M565.288,496.85H557.25l-3.824-31H565.29Z" transform="translate(-145.725 -122.663)" fill="#ffb6b6"/>
    <path id="Path_978" data-name="Path 978" d="M525.448,248.14l1.821,4.735-.364,4.736-35.646,12.346,1.769-20.724,4.007-4.735Z" transform="translate(-129.355 -64.38)" fill="#ffb6b6"/>
    <circle id="Ellipse_491" data-name="Ellipse 491" cx="12.731" cy="12.731" r="12.731" transform="translate(371.091 117.684)" fill="#ffb7b7"/>
    <path id="Path_979" data-name="Path 979" d="M824.418,464.613V472.7s9.471,12.308,4.371,21.779L843.4,620.524H828.1l-25.54-106.371L791.675,618.338H778.562L777,535.478a176.106,176.106,0,0,1,10.732-63.944h0Z" transform="translate(-420.344 -259.123)" fill="#0b0a72"/>
    <path id="Path_980" data-name="Path 980" d="M800.633,336.651a15.991,15.991,0,0,1,24.311,13.956c-7.116.327-14.592.413-22.172.427l-1.791-4.384-1.056,4.388q-3.465,0-6.942-.009A16.328,16.328,0,0,1,800.633,336.651Z" transform="translate(-425.559 -222.814)" fill="#2f2e41"/>
    <path id="Path_981" data-name="Path 981" d="M790.081,707.181h-5.7l-1.018-5.385-2.607,5.385H765.623a3.4,3.4,0,0,1-1.932-6.2l12.081-8.343V687.2l12.707.758Z" transform="translate(-416.462 -317.732)" fill="#2f2e41"/>
    <path id="Path_982" data-name="Path 982" d="M858.318,707.181h-5.7L851.6,701.8l-2.608,5.385H833.86a3.4,3.4,0,0,1-1.932-6.2l12.08-8.343V687.2l12.707.758Z" transform="translate(-434.429 -317.732)" fill="#2f2e41"/>
    <path id="Path_983" data-name="Path 983" d="M830.67,469.836a99.233,99.233,0,0,0-2.164-29.011c-2.7-12-6.14-27.278-6.207-27.673a.15.15,0,0,1,0-.023l-1.047-22.374a.259.259,0,0,0-.25-.246l-7.244-.243a.259.259,0,0,1-.25-.258h0A4.109,4.109,0,0,0,809.4,385.9H794.929a3.848,3.848,0,0,0-3.816,3.368.255.255,0,0,1-.26.23l-5.63-.189a.259.259,0,0,0-.255.181l-.392,1.244a130.355,130.355,0,0,0-4.622,56.614c.682,5.051.373,12.646.115,16.878a3.147,3.147,0,0,0,2.961,3.335c10.466.6,40.1,14.941,47.195,8.1C830.242,475.636,830.431,473.111,830.67,469.836Z" transform="translate(-420.804 -238.396)" fill="#0603af"/>
    <path id="Path_984" data-name="Path 984" d="M765.554,384.088a6.965,6.965,0,0,1,.158,1.085l28.415,16.392,6.907-3.976,7.363,9.639-11.543,8.227a5.292,5.292,0,0,1-6.349-.155l-29.3-23.116a6.943,6.943,0,1,1,4.35-8.1Z" transform="translate(-413.73 -236.509)" fill="#ffb6b6"/>
    <path id="Path_985" data-name="Path 985" d="M809.749,403.4a2.974,2.974,0,0,1,1.485-1.985l13.119-7.148a8.267,8.267,0,1,1,9.994,13.17l-10.514,10.681a2.977,2.977,0,0,1-4.5-.3l-9.052-12a2.973,2.973,0,0,1-.533-2.421Z" transform="translate(-428.958 -240.159)" fill="#0a07aa"/>
    <circle id="Ellipse_492" data-name="Ellipse 492" cx="33.151" cy="33.151" r="33.151" transform="translate(0 278.979)" fill="#fb8500"/>
    <path id="Path_986" data-name="Path 986" d="M621.285,397.383l-240.239,110.3a14.2,14.2,0,0,1-18.81-6.973L302.95,371.581a14.2,14.2,0,0,1,6.973-18.81l240.239-110.3a14.2,14.2,0,0,1,18.81,6.973l59.285,129.129a14.2,14.2,0,0,1-6.973,18.81Z" transform="translate(-295.189 -200.29)" fill="#fff"/>
    <path id="Path_987" data-name="Path 987" d="M317.341,364.9a4.613,4.613,0,0,0-2.265,6.111l59.285,129.129a4.613,4.613,0,0,0,6.111,2.265L620.712,392.1a4.613,4.613,0,0,0,2.265-6.111L563.691,256.864a4.614,4.614,0,0,0-6.111-2.265Z" transform="translate(-298.611 -203.713)" fill="#0603af"/>
    <path id="Path_988" data-name="Path 988" d="M621.285,397.383l-240.239,110.3a14.2,14.2,0,0,1-18.81-6.973L302.95,371.581a14.2,14.2,0,0,1,6.973-18.81l240.239-110.3a14.2,14.2,0,0,1,18.81,6.973l59.285,129.129a14.2,14.2,0,0,1-6.973,18.81ZM310.537,354.11a12.726,12.726,0,0,0-6.248,16.856l59.285,129.128a12.726,12.726,0,0,0,16.856,6.248l240.24-110.3a12.726,12.726,0,0,0,6.249-16.856L567.633,250.06a12.726,12.726,0,0,0-16.856-6.248Z" transform="translate(-295.189 -200.29)" fill="#cacaca"/>
    <path id="Path_989" data-name="Path 989" d="M561.714,338.635,370.859,426.26a8.212,8.212,0,0,1-9.286-1.726l-55.84-57.265a8.195,8.195,0,0,1,2.437-13.164L552.763,241.353a8.2,8.2,0,0,1,11.57,6.5h.033l2.122,83.129a8.185,8.185,0,0,1-4.773,7.656Zm-8.326-95.947-244.6,112.757a6.721,6.721,0,0,0-2,10.8l55.841,57.264a6.735,6.735,0,0,0,7.616,1.416L561.1,337.3a6.713,6.713,0,0,0,3.915-6.279l-2.1-82.392.294-.007-.294.007a6.721,6.721,0,0,0-9.523-5.936Z" transform="translate(-295.649 -200.138)" fill="#cacaca"/>
    <path id="Path_990" data-name="Path 990" d="M468.495,532.121l-59.463,27.3a3.615,3.615,0,0,1-3.017-6.57l59.463-27.3a3.615,3.615,0,0,1,3.017,6.57Z" transform="translate(-322.113 -275.082)" fill="#fff"/>
    <path id="Path_991" data-name="Path 991" d="M538.561,420.053a18.579,18.579,0,0,1-33.77,15.5" transform="translate(-348.676 -247.39)" fill="#cacaca"/>
    <path id="Path_992" data-name="Path 992" d="M633.064,630.7H368.715a14.2,14.2,0,0,1-14.185-14.185V474.429a14.2,14.2,0,0,1,14.185-14.185h264.35a14.2,14.2,0,0,1,14.185,14.185V616.517A14.2,14.2,0,0,1,633.064,630.7Z" transform="translate(-309.111 -257.973)" fill="#fff"/>
    <path id="Path_993" data-name="Path 993" d="M372.138,473.244a4.613,4.613,0,0,0-4.608,4.608V619.939a4.613,4.613,0,0,0,4.608,4.608h264.35a4.614,4.614,0,0,0,4.608-4.608V477.852a4.614,4.614,0,0,0-4.608-4.608Z" transform="translate(-312.534 -261.396)" fill="#ffb703"/>
    <path id="Path_994" data-name="Path 994" d="M633.064,630.7H368.715a14.2,14.2,0,0,1-14.185-14.185V474.429a14.2,14.2,0,0,1,14.185-14.185h264.35a14.2,14.2,0,0,1,14.185,14.185V616.517A14.2,14.2,0,0,1,633.064,630.7ZM368.715,461.717A12.726,12.726,0,0,0,356,474.429V616.517a12.726,12.726,0,0,0,12.712,12.712h264.35a12.726,12.726,0,0,0,12.712-12.712V474.429a12.726,12.726,0,0,0-12.712-12.712Z" transform="translate(-309.111 -257.973)" fill="#3f3d56"/>
    <path id="Path_995" data-name="Path 995" d="M604.163,552.408H394.154a8.211,8.211,0,0,1-7.719-5.443l-26.854-75.341a8.195,8.195,0,0,1,7.708-10.946l269.33-.414a8.2,8.2,0,0,1,7.8,10.732l.03.013-32.757,76.432a8.184,8.184,0,0,1-7.532,4.967Zm32.466-90.671-269.34.414a6.721,6.721,0,0,0-6.322,8.978l26.854,75.341a6.735,6.735,0,0,0,6.331,4.464h210.01a6.713,6.713,0,0,0,6.178-4.073l32.467-75.755.271.116-.271-.116a6.721,6.721,0,0,0-6.178-9.369Z" transform="translate(-310.315 -257.978)" fill="#3f3d56"/>
    <path id="Path_996" data-name="Path 996" d="M452.291,661.209H386.86a3.615,3.615,0,1,1,0-7.23h65.43a3.615,3.615,0,0,1,0,7.23Z" transform="translate(-316.672 -308.986)" fill="#fff"/>
    <path id="Path_997" data-name="Path 997" d="M565.141,584.343a18.579,18.579,0,1,1-37.159,0" transform="translate(-354.783 -290.65)" fill="#3f3d56"/>
    <circle id="Ellipse_493" data-name="Ellipse 493" cx="6.63" cy="6.63" r="6.63" transform="translate(86.192 66.814)" fill="#ffb703"/>
    <circle id="Ellipse_494" data-name="Ellipse 494" cx="6.63" cy="6.63" r="6.63" transform="translate(0 225.938)" fill="#219ebc"/>
    <circle id="Ellipse_495" data-name="Ellipse 495" cx="6.63" cy="6.63" r="6.63" transform="translate(331.509 101.438)" fill="#fb8500"/>
    <path id="Path_998" data-name="Path 998" d="M860.515,713.7H734.325a.877.877,0,0,1,0-1.754h126.19a.877.877,0,0,1,0,1.754Z" transform="translate(-408.885 -324.249)" fill="#cacaca"/>
  </g>
</svg>
