<svg xmlns="http://www.w3.org/2000/svg" xmlns:xlink="http://www.w3.org/1999/xlink" width="621" height="621" viewBox="0 0 621 621">
  <defs>
    <filter id="Path_837" x="0" y="0" width="621" height="621" filterUnits="userSpaceOnUse">
      <feOffset dy="33" input="SourceAlpha"/>
      <feGaussianBlur stdDeviation="36" result="blur"/>
      <feFlood flood-color="#fb8500" flood-opacity="0.259"/>
      <feComposite operator="in" in2="blur"/>
      <feComposite in="SourceGraphic"/>
    </filter>
  </defs>
  <g id="Group_375" data-name="Group 375" transform="translate(108 75.2)">
    <g transform="matrix(1, 0, 0, 1, -108, -75.2)" filter="url(#Path_837)">
      <path id="Path_837-2" data-name="Path 837" d="M202.5,0C314.338,0,405,90.662,405,202.5S314.338,405,202.5,405,0,314.338,0,202.5,90.662,0,202.5,0Z" transform="translate(108 75)" fill="#fb8500"/>
    </g>
    <g id="Group_374" data-name="Group 374" transform="translate(-243 -68)">
      <path id="Path_753" data-name="Path 753" d="M562.293,678.669l.853-.32c.187-.071,18.836-7.215,27.572-23.416s4.458-35.708,4.414-35.9l-.2-.888-.852.32c-.187.071-18.835,7.215-27.572,23.416s-4.458,35.708-4.414,35.9Zm27.025-24.49c-7.386,13.7-22.122,20.719-25.856,22.322-.71-4-2.936-20.185,4.443-33.869s22.121-20.715,25.856-22.322C594.471,624.314,596.7,640.5,589.318,654.179Z" transform="translate(27.405 -248.264)" fill="#3f3d56"/>
      <path id="Path_754" data-name="Path 754" d="M548.674,661.159c-15.7,9.445-21.746,28.206-21.746,28.206s19.407,3.447,35.107-6,21.745-28.206,21.745-28.206S564.373,651.713,548.674,661.159Z" transform="translate(62.773 -260.173)" fill="#219ebc"/>
      <path id="Path_755" data-name="Path 755" d="M1055.741,677.781c.044-.195,4.322-19.7-4.414-35.9s-27.384-23.346-27.571-23.416l-.852-.32-.2.888c-.044.195-4.322,19.7,4.414,35.9s27.384,23.346,27.572,23.416l.853.32Zm-31.669-57.471c3.735,1.607,18.478,8.639,25.856,22.322s5.153,29.867,4.443,33.869c-3.734-1.6-18.47-8.624-25.856-22.322s-5.153-29.865-4.446-33.869Z" transform="translate(-743.144 -248.265)" fill="#3f3d56"/>
      <path id="Path_756" data-name="Path 756" d="M1058.64,661.159c15.7,9.445,21.745,28.206,21.745,28.206s-19.407,3.447-35.106-6-21.746-28.206-21.746-28.206S1042.941,651.713,1058.64,661.159Z" transform="translate(-767.991 -260.173)" fill="#219ebc"/>
      <rect id="Rectangle_223" data-name="Rectangle 223" width="374.198" height="1.589" transform="translate(279.392 428.718)" fill="#3f3d56"/>
      <path id="Path_765" data-name="Path 765" d="M829.95,291.317s11.132-1.59,16.7,19.084,7.156,22.265,7.156,22.265-32.6,4.771-33.4,3.181S813.252,296.088,829.95,291.317Z" transform="translate(-403.488 -141.347)" fill="#2f2e41"/>
      <ellipse id="Ellipse_455" data-name="Ellipse 455" cx="21.469" cy="21.469" rx="21.469" ry="21.469" transform="translate(411.354 99.08)" fill="#ffc68d"/>
      <path id="Path_766" data-name="Path 766" d="M864.835,269.94s-7.156,18.289-4.771,20.674-29.421,5.566-29.421,5.566-2.386-11.927,7.156-19.084c0,0,3.976-11.927,3.181-14.313S864.835,269.94,864.835,269.94Z" transform="translate(-422.469 -131.897)" fill="#ffc68d"/>
      <path id="Path_767" data-name="Path 767" d="M769.051,284.3a57.341,57.341,0,0,1,21.469,14.313c9.542,10.337,14.313,13.518,14.313,13.518s11.132,3.976,7.156,23.06c-1.988,9.542-.6,20.277,1.292,28.626a178.867,178.867,0,0,1,4.274,39.469v8.241s73.155,153.466,48.5,163.8-46.915,13.518-48.5,11.132S787.34,460.035,787.34,460.035s-7.952,132.792-27.831,132.792-52.481-5.566-52.481-5.566l40.553-159.033s-9.542-27.036,14.313-46.119l3.181-8.746c-13.192.007-19.222-83.485-5.566-90.649C759.51,282.714,762.69,280.329,769.051,284.3Z" transform="translate(-345.77 -138.31)" fill="#2f2e41"/>
      <path id="Path_768" data-name="Path 768" d="M787.672,348.462,798.8,377.883l26.24,54.866s11.928,35.782,2.386,35.782-16.7-34.192-16.7-34.192L781.311,388.22l-16.7-41.348Z" transform="translate(-344.511 -159.528)" fill="#ffc68d"/>
      <ellipse id="Ellipse_456" data-name="Ellipse 456" cx="13.915" cy="7.952" rx="13.915" ry="7.952" transform="translate(482.124 438.614)" fill="#219ebc"/>
      <ellipse id="Ellipse_457" data-name="Ellipse 457" cx="13.915" cy="7.952" rx="13.915" ry="7.952" transform="translate(375.572 438.614)" fill="#219ebc"/>
      <path id="Path_769" data-name="Path 769" d="M838.972,202.32h0a17.051,17.051,0,0,1,3.292.327,14.428,14.428,0,0,1,6.285-1.449h.57c11,0,19.914,9.952,19.914,22.229h-3.685l-.6-4.53-.873,4.53h-3.07a43.456,43.456,0,0,1,1.426,11.137v22.625h-5.572l-3.226-8.383.807,8.383H818.432l-2.933-7.621.733,7.621H812.2V239.424C812.2,218.932,824.187,202.32,838.972,202.32Z" transform="translate(-414.437 -111.877)" fill="#2f2e41"/>
      <path id="Path_770" data-name="Path 770" d="M756.428,39.42h-5.256a4.1,4.1,0,0,0-4.1,4.1v24.1a4.1,4.1,0,0,0,4.1,4.1h5.256a4.1,4.1,0,0,0,4.1-4.1v-24.1A4.1,4.1,0,0,0,756.428,39.42Z" transform="translate(-323.997 46.062)" fill="#219ebc"/>
      <ellipse id="Ellipse_458" data-name="Ellipse 458" cx="12.112" cy="12.112" rx="12.112" ry="12.112" transform="translate(417.691 111.725)" fill="#219ebc"/>
      <ellipse id="Ellipse_459" data-name="Ellipse 459" cx="6.056" cy="6.056" rx="6.056" ry="6.056" transform="translate(423.747 117.78)" fill="#d0cde1"/>
      <ellipse id="Ellipse_460" data-name="Ellipse 460" cx="2.692" cy="2.692" rx="2.692" ry="2.692" transform="translate(427.112 121.145)" fill="#219ebc"/>
    </g>
  </g>
</svg>
