<svg xmlns="http://www.w3.org/2000/svg" xmlns:xlink="http://www.w3.org/1999/xlink" width="621" height="621" viewBox="0 0 621 621">
  <defs>
    <filter id="Ellipse_444" x="0" y="0" width="621" height="621" filterUnits="userSpaceOnUse">
      <feOffset dy="33" input="SourceAlpha"/>
      <feGaussianBlur stdDeviation="36" result="blur"/>
      <feFlood flood-color="#219ebc" flood-opacity="0.188"/>
      <feComposite operator="in" in2="blur"/>
      <feComposite in="SourceGraphic"/>
    </filter>
  </defs>
  <g id="Group_377" data-name="Group 377" transform="translate(-135 7.4)">
    <g transform="matrix(1, 0, 0, 1, 135, -7.4)" filter="url(#Ellipse_444)">
      <circle id="Ellipse_444-2" data-name="Ellipse 444" cx="202.5" cy="202.5" r="202.5" transform="translate(108 75)" fill="#219ebc"/>
    </g>
    <g id="Group_376" data-name="Group 376">
      <path id="Path_771" data-name="Path 771" d="M614.236,696.1H254.521c-.288,0-.521-.448-.521-1s.233-1,.521-1H614.236c.288,0,.521.448.521,1S614.524,696.1,614.236,696.1Z" transform="translate(29.865 -268.938)" fill="#023047"/>
      <circle id="Ellipse_464" data-name="Ellipse 464" cx="3" cy="3" r="3" transform="translate(282.129 412.32)" fill="#fff"/>
      <path id="Path_805" data-name="Path 805" d="M834.653,453.7a11,11,0,0,0-14.891,6.915,10.572,10.572,0,0,0-.32,1.435L775.5,483.843,765.336,477.1,752.684,491.67l15.526,12.609a11.149,11.149,0,0,0,13.3.513l44.579-30.828a10.5,10.5,0,0,0,1.015.37,11,11,0,0,0,14.01-8.561,10.706,10.706,0,0,0,.163-1.34,11.036,11.036,0,0,0-6.626-10.729Z" transform="translate(-299.37 -268.938)" fill="#ffb8b8"/>
      <path id="Path_806" data-name="Path 806" d="M760.84,587.853h48.01c0,1.38,49.48,2.5,49.48,2.5a12.861,12.861,0,0,1,2.11,2,12.41,12.41,0,0,1,2.9,8v2a12.5,12.5,0,0,1-12.5,12.5h-90a12.511,12.511,0,0,1-12.5-12.5v-2A12.517,12.517,0,0,1,760.84,587.853Z" transform="translate(-317.073 -268.938)" fill="#3f3d56"/>
      <rect id="Rectangle_225" data-name="Rectangle 225" width="13" height="84" transform="translate(482.991 345.418)" fill="#3f3d56"/>
      <path id="Path_807" data-name="Path 807" d="M849.617,697.9c0,1.4-19.7.543-44,.543s-44,.861-44-.543,19.7-12.543,44-12.543S849.617,696.495,849.617,697.9Z" transform="translate(-316.625 -268.938)" fill="#3f3d56"/>
      <path id="Path_808" data-name="Path 808" d="M501.263,487.993h12.259l5.833-31.8H501.261Z" transform="translate(19.993 -68.877)" fill="#ffb8b8"/>
      <path id="Path_809" data-name="Path 809" d="M736.95,699.938h39.531v-.5a15.386,15.386,0,0,0-15.387-15.386H736.949Z" transform="translate(-218.822 -268.938)" fill="#2f2e41"/>
      <path id="Path_810" data-name="Path 810" d="M815.8,668.337l24.441-54.808a20.086,20.086,0,0,0-8.819-25.784l-53.013-28.428-24.191-2.058L731.9,555.231l-.161.272c-.206.348-5,8.635-1.76,17.722,2.46,6.893,8.859,12.276,19.019,16,23.714,8.7,51.109,16.127,61.786,18.918a3.451,3.451,0,0,1,2.211,1.76,3.5,3.5,0,0,1,.2,2.8l-22.706,51.014a4.5,4.5,0,0,0,3.809,6.029l16.967,1.235q.216.021.43.021a4.5,4.5,0,0,0,4.106-2.667Z" transform="translate(-276.209 -268.938)" fill="#2f2e41"/>
      <path id="Path_811" data-name="Path 811" d="M507.263,487.993h12.259l5.833-31.8H507.261Z" transform="translate(7.993 -68.877)" fill="#ffb8b8"/>
      <path id="Path_812" data-name="Path 812" d="M742.95,699.938h39.531v-.5a15.386,15.386,0,0,0-15.387-15.386H742.949Z" transform="translate(-230.822 -268.938)" fill="#2f2e41"/>
      <path id="Path_813" data-name="Path 813" d="M822.8,671.337l24.441-54.808a20.086,20.086,0,0,0-8.819-25.784l-53.013-28.428-24.191-2.058L738.9,558.231l-.161.272c-.206.348-5,8.635-1.76,17.722,2.46,6.893,8.859,12.276,19.019,16,23.714,8.7,51.109,16.127,61.786,18.918a3.451,3.451,0,0,1,2.211,1.76,3.5,3.5,0,0,1,.2,2.8l-22.706,51.014a4.5,4.5,0,0,0,3.809,6.029l16.967,1.235q.216.021.43.021A4.5,4.5,0,0,0,822.8,671.337Z" transform="translate(-290.208 -268.938)" fill="#2f2e41"/>
      <path id="Path_814" data-name="Path 814" d="M768.368,503.906a167.5,167.5,0,0,0,24.075-44.932,4.3,4.3,0,0,0-2.032-5.179l-35.145-18.832a4.247,4.247,0,0,0-3.726-.151,4.319,4.319,0,0,0-2.461,2.884,102.328,102.328,0,0,1-22.446,41.891,4.318,4.318,0,0,0-1.038,3.647,4.247,4.247,0,0,0,2.189,3.018l35.146,18.832a4.3,4.3,0,0,0,5.437-1.177Z" transform="translate(-223.594 -268.938)" fill="#ccc"/>
      <path id="Path_815" data-name="Path 815" d="M765.968,502.1a1.3,1.3,0,0,1-1.622.335L729.2,483.607a1.246,1.246,0,0,1-.653-.9,1.318,1.318,0,0,1,.325-1.128,105.341,105.341,0,0,0,23.107-43.125,1.319,1.319,0,0,1,.758-.895,1.247,1.247,0,0,1,1.11.046l35.145,18.831a1.3,1.3,0,0,1,.62,1.537A164.507,164.507,0,0,1,765.968,502.1Z" transform="translate(-223.593 -268.938)" fill="#fff"/>
      <path id="Path_816" data-name="Path 816" d="M831.687,498.883l27.525,10.459,6.72-18.667a11.168,11.168,0,0,0-5-13.5h0a11.168,11.168,0,0,0-14.263,2.784Z" transform="translate(-403.671 -268.938)" fill="#6c63ff"/>
      <path id="Path_817" data-name="Path 817" d="M851.866,572.843a5,5,0,0,0,2.083-3.549c3.525-32.91,1.07-58.664-7.506-78.735a24.992,24.992,0,0,0-16.567-14.18l-22.249-1.123-.115.056A26.005,26.005,0,0,0,793.293,502.9c7.156,18.863,13.148,38.5,8.579,54.346a5.122,5.122,0,0,0,.484,3.983,4.884,4.884,0,0,0,3.116,2.309L847.85,573.62a4.964,4.964,0,0,0,4.017-.777Z" transform="translate(-353.84 -268.938)" fill="#ffb703"/>
      <ellipse id="Ellipse_465" data-name="Ellipse 465" cx="24.561" cy="24.561" rx="24.561" ry="24.561" transform="translate(436.652 148.885)" fill="#ffb8b8"/>
      <path id="Path_818" data-name="Path 818" d="M743.205,461.838l19.142,8.45a3,3,0,0,0,3.956-1.533l.473-1.073a3,3,0,0,0-1.533-3.956l-19.142-8.45a3,3,0,0,0-3.956,1.533l-.473,1.072a3,3,0,0,0,1.533,3.956Z" transform="translate(-213.839 -268.938)" fill="#ccc"/>
      <path id="Path_819" data-name="Path 819" d="M750.2,474.838l19.142,8.45a3,3,0,0,0,3.956-1.533l.473-1.073a3,3,0,0,0-1.533-3.956l-19.142-8.45a3,3,0,0,0-3.956,1.533l-.473,1.072a3,3,0,0,0,1.533,3.956Z" transform="translate(-227.839 -268.938)" fill="#ccc"/>
      <path id="Path_820" data-name="Path 820" d="M759.25,525.615l42.674-33.666a10.517,10.517,0,0,0,1.036.306,11.027,11.027,0,0,0,8.818-1.691,10.913,10.913,0,0,0,4.627-7.733,11,11,0,0,0-21.635-3.8,10.573,10.573,0,0,0-.229,1.452l-42.481,24.508L741.487,498.9l-11.711,15.332,16.414,11.7a10.942,10.942,0,0,0,13.06-.318Z" transform="translate(-251.646 -268.938)" fill="#ffb8b8"/>
      <path id="Path_821" data-name="Path 821" d="M804.725,519.009l24.349-16.557L817.63,486.245A11.168,11.168,0,0,0,803.7,482.6h0a11.168,11.168,0,0,0-5.894,13.283Z" transform="translate(-331.802 -268.938)" fill="#ffb703"/>
      <path id="Path_822" data-name="Path 822" d="M887.154,438.727c6.313,4.32,14.6,8.762,21.049,4.161,4.234-3.021,5.567-8.615,3.851-13.525-3.087-8.829-11.569-12.715-19.68-15.695-10.544-3.873-22.026-6.954-32.911-4.181s-20.506,13.313-18.541,24.373c1.58,8.894,9.97,16.295,8.779,25.25-1.2,9.012-11.334,13.756-20.281,15.367s-18.96,2.128-25.391,8.555c-8.2,8.2-6.155,22.853,1.564,31.51s19.367,12.58,30.654,15.248c14.955,3.534,31.129,5.392,45.332-.474s25.256-21.654,21.141-36.46c-1.738-6.254-5.832-11.539-9.789-16.684s-7.963-10.526-9.472-16.839c-1.258-5.261-.327-11.369,3.162-15.315a4.437,4.437,0,0,0,.594-5.186Z" transform="translate(-416.936 -268.938)" fill="#2f2e41"/>
      <path id="Path_823" data-name="Path 823" d="M363.072,558.06a39.063,39.063,0,0,1-37.721-6.645C312.139,540.326,308,522.057,304.626,505.14L294.657,455.1l20.872,14.371c15.01,10.335,30.357,21,40.75,35.971s14.929,35.405,6.579,51.6" transform="translate(5.36 -268.938)" fill="#ffb703"/>
      <path id="Path_824" data-name="Path 824" d="M361.288,618.639c2.112-15.388,4.285-30.972,2.8-46.525-1.316-13.812-5.53-27.3-14.109-38.364a63.822,63.822,0,0,0-16.374-14.838c-1.637-1.034-3.144,1.561-1.514,2.59a60.671,60.671,0,0,1,24,28.957c5.225,13.29,6.064,27.776,5.164,41.893-.544,8.537-1.7,17.018-2.861,25.489a1.554,1.554,0,0,0,1.048,1.845,1.509,1.509,0,0,0,1.845-1.048Z" transform="translate(5.36 -268.938)" fill="#023047"/>
      <path id="Path_825" data-name="Path 825" d="M340.941,591.41a28.755,28.755,0,0,1-25.055,12.931c-12.683-.6-23.257-9.454-32.775-17.858l-28.153-24.857,18.633-.892c13.4-.641,27.145-1.239,39.908,2.893s24.533,14.077,26.867,27.287" transform="translate(5.36 -268.938)" fill="none" stroke="#023047" stroke-width="1"/>
      <path id="Path_826" data-name="Path 826" d="M367.258,627.484C357.09,609.493,345.3,589.5,324.223,583.107a48.023,48.023,0,0,0-18.1-1.869c-1.922.166-1.442,3.128.476,2.963a44.614,44.614,0,0,1,28.887,7.642c8.145,5.544,14.487,13.252,19.854,21.425,3.288,5.007,6.233,10.226,9.178,15.438C365.459,630.371,368.21,629.169,367.258,627.484Z" transform="translate(5.36 -268.938)" fill="#023047"/>
      <path id="Path_827" data-name="Path 827" d="M383.55,646.421a21.774,21.774,0,0,0-13.343-18.237v-10.4H352.762v10.729a21.763,21.763,0,0,0-12.616,17.909l-4.1,47.684h51.608Z" transform="translate(5.36 -268.938)" fill="#ffb703"/>
    </g>
  </g>
</svg>
