<svg xmlns="http://www.w3.org/2000/svg" width="173" height="51.187" viewBox="0 0 173 51.187">
  <g id="Layer_2" data-name="Layer 2" transform="translate(-0.068)">
    <g id="Layer_1" data-name="Layer 1" transform="translate(0.068)">
      <path id="Path_841" data-name="Path 841" d="M174.133,84.108c-.478-.08-.968-.13-1.431-.256a8.493,8.493,0,0,1-6.308-5.566,16.427,16.427,0,0,1-.038-11.216,8.249,8.249,0,0,1,6.886-5.493,16.874,16.874,0,0,1,5.463.061c.161.027.329.038.547.057V53.36h5.313V76.351a7.167,7.167,0,0,1-5.8,7.375c-.708.168-1.435.256-2.15.383Zm5.137-18.236a13.791,13.791,0,0,0-4.449-.3A4.1,4.1,0,0,0,171.1,68.9a11.477,11.477,0,0,0-.317,1.936,16.616,16.616,0,0,0,.5,5.983A3.41,3.41,0,0,0,173.4,79.3a6.392,6.392,0,0,0,4.59-.153,1.97,1.97,0,0,0,1.259-1.993V67.307Z" transform="translate(-102.146 -32.948)" fill="#520066"/>
      <path id="Path_842" data-name="Path 842" d="M326.77,97.06c-.765-.126-1.53-.207-2.249-.383a7.058,7.058,0,0,1-5.673-5.627A6.5,6.5,0,0,1,323,83.4a16.583,16.583,0,0,1,6.641-.765c.765.05,1.53.142,2.318.214a3.581,3.581,0,0,0-2.552-3.944,10.2,10.2,0,0,0-3.443-.226,16.5,16.5,0,0,0-5,1.041c0-.176-.027-.306-.027-.436v-3.3a.62.62,0,0,1,.516-.738,19.7,19.7,0,0,1,7.284-.861,13.008,13.008,0,0,1,3.137.589,7.4,7.4,0,0,1,5.333,6.771c.226,2.3.122,4.663.153,7a10.678,10.678,0,0,1-.08,2.012,7.053,7.053,0,0,1-5.635,5.918c-.719.184-1.465.264-2.2.383Zm5.218-10.83c-.7-.073-1.446-.172-2.188-.222a10.091,10.091,0,0,0-3.825.333,2.752,2.752,0,0,0-1.913,1.576,3.232,3.232,0,0,0,1.813,4.12,6.381,6.381,0,0,0,4.185.057,2.475,2.475,0,0,0,1.878-2.154A33.1,33.1,0,0,0,331.987,86.23Z" transform="translate(-196.79 -45.899)" fill="#520066"/>
      <path id="Path_843" data-name="Path 843" d="M72.9,97.122c-.612-.107-1.232-.184-1.836-.325a8.458,8.458,0,0,1-6.549-5.96,16.009,16.009,0,0,1,.134-10.447,8.543,8.543,0,0,1,7.069-5.738,14,14,0,0,1,5.738.176,8.229,8.229,0,0,1,6.121,5.325,15.726,15.726,0,0,1,.042,11.113A8.477,8.477,0,0,1,76.573,96.9c-.383.069-.807.13-1.213.191ZM79.35,85.806c-.13-1.148-.21-2.322-.409-3.443A3.763,3.763,0,0,0,76.175,79.1a9.07,9.07,0,0,0-2.486-.275,4.067,4.067,0,0,0-4.3,3.527,16.533,16.533,0,0,0,.054,7.215,3.749,3.749,0,0,0,3,3.06,9.258,9.258,0,0,0,2.18.2,4.071,4.071,0,0,0,4.334-3.592C79.167,88.094,79.22,86.946,79.35,85.806Z" transform="translate(-39.359 -45.961)" fill="#520066"/>
      <path id="Path_844" data-name="Path 844" d="M233.115,97.046a16.63,16.63,0,0,1-2.15-.383c-1.148-.356-2.23-.811-3.336-1.239-.119-.046-.272-.2-.272-.306-.019-1.473,0-2.949,0-4.491.421.241.765.463,1.148.658a10.772,10.772,0,0,0,7.1,1.109,1.737,1.737,0,0,0,1.607-1.622,1.664,1.664,0,0,0-1.006-1.871c-.872-.428-1.79-.765-2.7-1.106-.987-.383-2.008-.639-2.98-1.033a5.82,5.82,0,0,1-3.783-5.975c.164-3.864,3.011-5.7,5.891-6.243a11.97,11.97,0,0,1,7.876,1.121.6.6,0,0,1,.383.627c-.023,1.148,0,2.318,0,3.561-.2-.076-.344-.126-.493-.187a11.755,11.755,0,0,0-6.5-.666,3.248,3.248,0,0,0-1.025.383,1.433,1.433,0,0,0-.1,2.567,11.6,11.6,0,0,0,2.177.937c1.174.421,2.4.719,3.55,1.2a6.334,6.334,0,0,1,3.99,5.623,5.824,5.824,0,0,1-1.783,5.2,8.251,8.251,0,0,1-4.747,2.07,4.423,4.423,0,0,0-.436.092Z" transform="translate(-140.023 -45.885)" fill="#520066"/>
      <path id="Path_845" data-name="Path 845" d="M282.821,87.183c-.471-.107-.953-.187-1.415-.329a6.142,6.142,0,0,1-4.441-5.356,10.1,10.1,0,0,1-.1-1.6V69.323H273.2v-4.48h3.642v-6.5h5.268V64.8h5.168v4.5H282.14c0,.21-.027.383-.027.536V80.1a7.276,7.276,0,0,0,.069.956,1.591,1.591,0,0,0,1.53,1.553,8.32,8.32,0,0,0,1.825.057,15.232,15.232,0,0,0,1.783-.348v4.043c0,.111-.176.279-.3.314-.685.2-1.381.356-2.073.524Z" transform="translate(-168.716 -36.023)" fill="#520066"/>
      <path id="Path_846" data-name="Path 846" d="M350.66,11.381a29.238,29.238,0,0,1,1.052,15.244c-.142-7.953-2.854-15.045-7.222-21.652A50.55,50.55,0,0,0,385.735,0,50.35,50.35,0,0,0,377.2,40.6c-6.186-4.9-13.006-8.221-20.978-8.978.585-.417,5.122-.333,7.651.084a31.529,31.529,0,0,1,7.482,2.211,58.065,58.065,0,0,1,3.06-23.545,58.459,58.459,0,0,1-23.756,1.01Z" transform="translate(-212.735)" fill="#09d2de"/>
      <path id="Path_847" data-name="Path 847" d="M19.869,96.66H14.639V83.233a6.671,6.671,0,0,0-.222-1.851,3.152,3.152,0,0,0-2.781-2.2,17.493,17.493,0,0,0-5.248.05c-.329.046-.658.107-1.029.168V96.66H.072V77.224A.65.65,0,0,1,.5,76.531,22.325,22.325,0,0,1,10.99,74.355,10.478,10.478,0,0,1,15.58,75.5a7.979,7.979,0,0,1,4.281,6.817c.057.712.038,1.435.038,2.15V96.064Z" transform="translate(-0.068 -45.901)" fill="#520066"/>
      <path id="Path_848" data-name="Path 848" d="M140.627,74.24v4.476c-.926.077-1.821.115-2.712.23-.83.1-1.649.3-2.475.428-.383.057-.444.249-.444.589V96.592h-5.287V77.033a.635.635,0,0,1,.463-.7,33.82,33.82,0,0,1,7.723-1.867C138.772,74.351,139.671,74.317,140.627,74.24Z" transform="translate(-80.112 -45.84)" fill="#520066"/>
    </g>
  </g>
</svg>
