<svg id="Group_526" data-name="Group 526" xmlns="http://www.w3.org/2000/svg" xmlns:xlink="http://www.w3.org/1999/xlink" width="346.711" height="386.394" viewBox="0 0 346.711 386.394">
  <defs>
    <clipPath id="clip-path">
      <rect id="Rectangle_379" data-name="Rectangle 379" width="346.711" height="386.394" fill="none"/>
    </clipPath>
    <clipPath id="clip-path-5">
      <rect id="Rectangle_362" data-name="Rectangle 362" width="106.232" height="64.219" fill="none"/>
    </clipPath>
    <clipPath id="clip-path-6">
      <rect id="Rectangle_363" data-name="Rectangle 363" width="34.979" height="9.118" fill="none"/>
    </clipPath>
    <clipPath id="clip-path-7">
      <rect id="Rectangle_364" data-name="Rectangle 364" width="10.374" height="9.691" fill="none"/>
    </clipPath>
    <clipPath id="clip-path-8">
      <rect id="Rectangle_365" data-name="Rectangle 365" width="3.666" height="3.596" fill="none"/>
    </clipPath>
    <clipPath id="clip-path-9">
      <rect id="Rectangle_366" data-name="Rectangle 366" width="6.17" height="39.424" fill="none"/>
    </clipPath>
    <clipPath id="clip-path-10">
      <rect id="Rectangle_367" data-name="Rectangle 367" width="15.494" height="3.76" fill="none"/>
    </clipPath>
    <clipPath id="clip-path-15">
      <rect id="Rectangle_372" data-name="Rectangle 372" width="34.364" height="34.419" fill="none"/>
    </clipPath>
    <clipPath id="clip-path-19">
      <rect id="Rectangle_376" data-name="Rectangle 376" width="45.833" height="42.895" fill="none"/>
    </clipPath>
  </defs>
  <g id="Group_525" data-name="Group 525" clip-path="url(#clip-path)">
    <g id="Group_479" data-name="Group 479">
      <g id="Group_478" data-name="Group 478" clip-path="url(#clip-path)">
        <path id="Path_1056" data-name="Path 1056" d="M333.057,223.069l-62.4-23.6a8.347,8.347,0,0,1-4.855-10.761l32.666-86.376a8.348,8.348,0,0,1,10.761-4.856L348.8,112.443,367.5,155.6l-23.678,62.61a8.349,8.349,0,0,1-10.761,4.854" transform="translate(-37.639 -13.755)" fill="#f5f5f5"/>
        <path id="Path_1057" data-name="Path 1057" d="M361.013,115.008l-9.194,24.31a7.765,7.765,0,0,0,4.514,10.009l23.373,8.844Z" transform="translate(-49.851 -16.319)" fill="#ebebeb"/>
        <path id="Path_1058" data-name="Path 1058" d="M351.247,145.965s-2.537,5.779,3.442,10.256a8.079,8.079,0,0,0,.7.464c2.846,1.7,21.586,12.872,21.761,12.411l2.471-6.533-23.375-8.839s-5.76-2.407-5-7.759" transform="translate(-49.765 -20.712)" fill="#e0e0e0"/>
        <path id="Path_1059" data-name="Path 1059" d="M341.468,138.065c-.118.313-6.678-1.878-14.649-4.893s-14.341-5.712-14.222-6.026,6.676,1.879,14.65,4.894,14.34,5.713,14.221,6.025" transform="translate(-44.356 -18.037)" fill="#e0e0e0"/>
        <path id="Path_1060" data-name="Path 1060" d="M354.056,161.136c-.118.312-10.852-3.457-23.971-8.419s-23.664-9.239-23.546-9.552,10.849,3.456,23.973,8.42,23.662,9.238,23.544,9.551" transform="translate(-43.497 -20.312)" fill="#e0e0e0"/>
        <path id="Path_1061" data-name="Path 1061" d="M353.278,176.13c-.118.312-11.81-3.82-26.11-9.228s-25.8-10.048-25.686-10.361,11.808,3.819,26.114,9.229,25.8,10.048,25.683,10.36" transform="translate(-42.779 -22.21)" fill="#e0e0e0"/>
        <path id="Path_1062" data-name="Path 1062" d="M348.5,188.749c-.118.312-11.81-3.819-26.11-9.228s-25.8-10.048-25.686-10.361,11.807,3.819,26.113,9.23,25.8,10.047,25.683,10.359" transform="translate(-42.102 -24.001)" fill="#e0e0e0"/>
        <path id="Path_1063" data-name="Path 1063" d="M343.733,201.368c-.118.312-11.81-3.819-26.111-9.228s-25.8-10.048-25.685-10.361,11.807,3.819,26.113,9.229,25.8,10.048,25.683,10.36" transform="translate(-41.425 -25.792)" fill="#e0e0e0"/>
        <path id="Path_1064" data-name="Path 1064" d="M338.96,213.988c-.118.312-11.81-3.82-26.11-9.228s-25.8-10.048-25.686-10.361,11.808,3.819,26.114,9.229,25.8,10.048,25.683,10.36" transform="translate(-40.747 -27.582)" fill="#e0e0e0"/>
        <path id="Path_1065" data-name="Path 1065" d="M132.449,267.555,50.181,296.363a5.46,5.46,0,0,1-6.958-3.349L1.947,175.141A5.459,5.459,0,0,1,5.3,168.183l82.268-28.808a5.459,5.459,0,0,1,6.957,3.348L135.8,260.6a5.459,5.459,0,0,1-3.348,6.957" transform="translate(-0.232 -19.733)" fill="#ebebeb"/>
        <rect id="Rectangle_355" data-name="Rectangle 355" width="84.322" height="123.792" transform="matrix(0.944, -0.33, 0.33, 0.944, 8.807, 154.837)" fill="#e0e0e0"/>
        <rect id="Rectangle_356" data-name="Rectangle 356" width="84.321" height="121.427" transform="matrix(0.944, -0.33, 0.33, 0.944, 7.383, 154.284)" fill="#fafafa"/>
        <path id="Path_1066" data-name="Path 1066" d="M128.292,261.9,88.053,147.334l.145.07L8.628,175.28l-.009,0,.076-.16c15,43.048,28.963,82.8,40.109,114.613l-.129-.062L128.292,261.9l-79.55,27.963-.1.033-.033-.1c-11.146-31.807-25.076-71.565-40.155-114.6l-.041-.118.118-.042.009,0,79.577-27.855.108-.038.038.108L128.292,261.9" transform="translate(-1.194 -20.88)" fill="#e0e0e0"/>
        <path id="Path_1067" data-name="Path 1067" d="M115.217,287.35s17.723-14.946,20.794-30.514a22.512,22.512,0,0,1-15.152,9.122s-.354,16.343-5.643,21.392" transform="translate(-16.349 -36.444)" fill="#e0e0e0"/>
        <path id="Path_1068" data-name="Path 1068" d="M42.695,219.257,38.5,220.724a2.933,2.933,0,0,1-3.738-1.8l-1.467-4.19A2.934,2.934,0,0,1,35.1,211l4.191-1.467a2.935,2.935,0,0,1,3.739,1.8l1.467,4.19a2.934,2.934,0,0,1-1.8,3.739" transform="translate(-4.701 -29.708)" fill="#ebebeb"/>
        <path id="Path_1069" data-name="Path 1069" d="M39.34,217.131l-.008,0a.243.243,0,0,1-.192-.021L37.22,216a.24.24,0,0,1,.242-.415l1.691.981,2.028-4.335a.24.24,0,1,1,.434.2l-2.138,4.573a.239.239,0,0,1-.138.125" transform="translate(-5.265 -30.095)" fill="#fff"/>
        <path id="Path_1070" data-name="Path 1070" d="M96.107,188.887c.023.065-10.313,3.744-23.082,8.215s-23.144,8.045-23.166,7.98,10.31-3.743,23.084-8.215,23.141-8.045,23.164-7.98" transform="translate(-7.075 -26.802)" fill="#e0e0e0"/>
        <path id="Path_1071" data-name="Path 1071" d="M72.248,208.1a5.079,5.079,0,0,1-.75.314l-2.075.769c-1.755.638-4.186,1.5-6.876,2.446s-5.131,1.782-6.9,2.379l-2.1.693a5,5,0,0,1-.782.222,4.973,4.973,0,0,1,.749-.314l2.075-.769c1.756-.638,4.187-1.505,6.878-2.447s5.131-1.781,6.9-2.378l2.1-.693a5,5,0,0,1,.782-.222" transform="translate(-7.487 -29.528)" fill="#e0e0e0"/>
        <path id="Path_1072" data-name="Path 1072" d="M97.394,192.561c.023.065-10.313,3.744-23.081,8.215s-23.144,8.045-23.167,7.98,10.31-3.743,23.084-8.215,23.141-8.045,23.164-7.979" transform="translate(-7.257 -27.324)" fill="#e0e0e0"/>
        <path id="Path_1073" data-name="Path 1073" d="M49.663,239.157l-4.191,1.467a2.933,2.933,0,0,1-3.738-1.8l-1.468-4.191a2.935,2.935,0,0,1,1.8-3.739l4.191-1.467a2.934,2.934,0,0,1,3.739,1.8l1.467,4.191a2.933,2.933,0,0,1-1.8,3.738" transform="translate(-5.69 -32.532)" fill="#ebebeb"/>
        <path id="Path_1074" data-name="Path 1074" d="M46.308,237.03l-.008,0a.243.243,0,0,1-.192-.021l-1.92-1.113a.24.24,0,0,1,.242-.415l1.691.981,2.028-4.335a.24.24,0,0,1,.435.2L46.446,236.9a.239.239,0,0,1-.138.125" transform="translate(-6.253 -32.919)" fill="#fff"/>
        <path id="Path_1075" data-name="Path 1075" d="M103.075,208.786c.023.065-10.313,3.744-23.082,8.215s-23.143,8.045-23.166,7.979,10.31-3.743,23.084-8.216,23.141-8.044,23.164-7.979" transform="translate(-8.064 -29.626)" fill="#e0e0e0"/>
        <path id="Path_1076" data-name="Path 1076" d="M79.217,228a5.076,5.076,0,0,1-.75.314l-2.075.769c-1.755.638-4.186,1.505-6.876,2.446s-5.131,1.782-6.9,2.379l-2.1.693a5,5,0,0,1-.782.222,4.97,4.97,0,0,1,.749-.314l2.075-.769c1.756-.638,4.187-1.505,6.878-2.447s5.131-1.781,6.9-2.378l2.1-.693a5,5,0,0,1,.782-.222" transform="translate(-8.476 -32.352)" fill="#e0e0e0"/>
        <path id="Path_1077" data-name="Path 1077" d="M104.362,212.461c.023.065-10.313,3.744-23.081,8.215s-23.144,8.045-23.167,7.98,10.31-3.743,23.084-8.216,23.141-8.044,23.164-7.979" transform="translate(-8.246 -30.147)" fill="#e0e0e0"/>
        <path id="Path_1078" data-name="Path 1078" d="M56.631,259.056l-4.191,1.467a2.933,2.933,0,0,1-3.738-1.8l-1.468-4.19a2.934,2.934,0,0,1,1.8-3.739l4.191-1.467a2.933,2.933,0,0,1,3.738,1.8l1.468,4.191a2.933,2.933,0,0,1-1.8,3.738" transform="translate(-6.679 -35.355)" fill="#ebebeb"/>
        <path id="Path_1079" data-name="Path 1079" d="M53.277,256.93l-.008,0a.243.243,0,0,1-.192-.021l-1.92-1.113a.24.24,0,0,1,.241-.415l1.692.981,2.027-4.335a.24.24,0,0,1,.435.2L53.415,256.8a.239.239,0,0,1-.138.125" transform="translate(-7.242 -35.742)" fill="#fff"/>
        <path id="Path_1080" data-name="Path 1080" d="M110.043,228.685c.023.065-10.313,3.744-23.082,8.215s-23.144,8.045-23.166,7.979,10.31-3.743,23.084-8.215,23.141-8.045,23.164-7.979" transform="translate(-9.052 -32.45)" fill="#e0e0e0"/>
        <path id="Path_1081" data-name="Path 1081" d="M86.185,247.9a5.074,5.074,0,0,1-.75.314l-2.075.769c-1.756.638-4.186,1.505-6.876,2.446s-5.131,1.782-6.9,2.379l-2.1.693a5,5,0,0,1-.782.222,4.97,4.97,0,0,1,.749-.314l2.075-.769c1.756-.638,4.187-1.505,6.878-2.447s5.131-1.781,6.9-2.378l2.1-.693a5,5,0,0,1,.782-.222" transform="translate(-9.464 -35.176)" fill="#e0e0e0"/>
        <path id="Path_1082" data-name="Path 1082" d="M111.33,232.36c.023.065-10.313,3.744-23.082,8.215S65.1,248.62,65.082,248.555s10.31-3.743,23.084-8.215,23.141-8.045,23.164-7.979" transform="translate(-9.235 -32.971)" fill="#e0e0e0"/>
        <path id="Path_1083" data-name="Path 1083" d="M63.6,278.955l-4.191,1.467a2.933,2.933,0,0,1-3.738-1.8L54.2,274.433a2.934,2.934,0,0,1,1.8-3.739l4.191-1.467a2.933,2.933,0,0,1,3.738,1.8l1.468,4.191a2.933,2.933,0,0,1-1.8,3.738" transform="translate(-7.668 -38.179)" fill="#ebebeb"/>
        <path id="Path_1084" data-name="Path 1084" d="M60.245,276.829l-.008,0a.243.243,0,0,1-.192-.021l-1.92-1.113a.24.24,0,0,1,.241-.415l1.692.981,2.027-4.335a.24.24,0,1,1,.435.2L60.383,276.7a.241.241,0,0,1-.138.124" transform="translate(-8.231 -38.566)" fill="#fff"/>
        <path id="Path_1085" data-name="Path 1085" d="M117.012,248.585c.023.065-10.313,3.744-23.081,8.215s-23.144,8.045-23.167,7.98,10.31-3.743,23.084-8.215,23.141-8.045,23.164-7.979" transform="translate(-10.041 -35.273)" fill="#e0e0e0"/>
        <path id="Path_1086" data-name="Path 1086" d="M93.153,267.8a5.077,5.077,0,0,1-.75.314l-2.075.769c-1.755.638-4.186,1.505-6.876,2.446s-5.131,1.782-6.9,2.379l-2.1.693a5,5,0,0,1-.782.222,4.975,4.975,0,0,1,.749-.314l2.075-.769c1.756-.638,4.187-1.505,6.878-2.447s5.131-1.781,6.9-2.378l2.1-.693a5,5,0,0,1,.782-.222" transform="translate(-10.453 -37.999)" fill="#e0e0e0"/>
        <path id="Path_1087" data-name="Path 1087" d="M118.3,252.259c.022.065-10.314,3.744-23.082,8.215s-23.144,8.045-23.167,7.979,10.31-3.743,23.084-8.215,23.142-8.045,23.165-7.98" transform="translate(-10.224 -35.795)" fill="#e0e0e0"/>
        <path id="Path_1088" data-name="Path 1088" d="M19.107,163.509l2.1,6a6.678,6.678,0,0,0,8.511,4.1L73.736,158.19a6.677,6.677,0,0,0,4.1-8.51l-2.1-5.988Z" transform="translate(-2.711 -20.389)" fill="#e0e0e0"/>
        <path id="Path_1089" data-name="Path 1089" d="M51.408,155.3a6.262,6.262,0,1,1,3.841-7.98,6.269,6.269,0,0,1-3.841,7.98m-3.345-9.553a3.86,3.86,0,1,0,4.919,2.368,3.865,3.865,0,0,0-4.919-2.368" transform="translate(-6.112 -20.309)" fill="#e0e0e0"/>
        <path id="Path_1090" data-name="Path 1090" d="M85.192,175.445c.039.114-11.566,4.282-25.921,9.309s-26.028,9.01-26.068,8.9,11.565-4.282,25.923-9.31,26.025-9.01,26.066-8.9" transform="translate(-4.711 -24.895)" fill="#e0e0e0"/>
        <path id="Path_1091" data-name="Path 1091" d="M72.668,177.932c.039.114-5.07,2.007-11.411,4.228s-11.516,3.928-11.556,3.814,5.069-2.006,11.412-4.228,11.515-3.928,11.555-3.814" transform="translate(-7.052 -25.247)" fill="#e0e0e0"/>
      </g>
    </g>
    <g id="Group_481" data-name="Group 481">
      <g id="Group_480" data-name="Group 480" clip-path="url(#clip-path)">
        <path id="Path_1092" data-name="Path 1092" d="M342.363,380.314a16.333,16.333,0,0,1,10.133-1.231,8.419,8.419,0,0,1,5.005,2.235c1.25,1.381,1.488,3.811.051,5a4.8,4.8,0,0,1-3.156.8c-2.678-.032-5.651-.5-7.79,1.109-1.221.919-2.034,2.447-3.493,2.9a3.451,3.451,0,0,1-3.8-1.689,5.9,5.9,0,0,1-.429-4.352,6.645,6.645,0,0,1,3.476-4.768" transform="translate(-48.056 -53.75)" fill="#0603af"/>
        <path id="Path_1093" data-name="Path 1093" d="M334.452,360.059c1.884,2.692,5.547,1.8,7.246.158s2.416-4.025,3.069-6.3c1.493-5.188,3-10.63,1.889-15.914a8.839,8.839,0,0,0-2.033-4.327,4.619,4.619,0,0,0-4.377-1.457c-1.847.488-2.994,2.3-3.824,4.018a37.941,37.941,0,0,0-3.749,16.28c-.009,2.621.3,5.372,1.78,7.537" transform="translate(-47.205 -47.125)" fill="#0603af"/>
        <path id="Path_1094" data-name="Path 1094" d="M325.126,365.352a9.793,9.793,0,0,0,1.524-9.013,17.379,17.379,0,0,0-5.338-7.744,28.761,28.761,0,0,0-9.558-5.639,10.2,10.2,0,0,0-4.3-.73,4.513,4.513,0,0,0-3.607,2.183c-1.006,1.918-.041,4.245,1,6.145a72.713,72.713,0,0,0,6.278,9.559c1.882,2.428,4.037,4.819,6.905,5.916s5.847.969,7.368-1.02" transform="translate(-43.055 -48.557)" fill="#0603af"/>
        <path id="Path_1095" data-name="Path 1095" d="M334.591,407.9a5.881,5.881,0,0,0,.171-1.223c.087-.891.2-2.008.324-3.338a48.339,48.339,0,0,1,.751-4.9,37.856,37.856,0,0,1,1.78-5.778,21.268,21.268,0,0,1,2.951-5.228,11.01,11.01,0,0,1,3.73-3.1,10.427,10.427,0,0,1,3.142-.978,5.789,5.789,0,0,0,1.218-.177,5.784,5.784,0,0,0-1.239-.019,9.512,9.512,0,0,0-3.276.853,11,11,0,0,0-3.935,3.128,20.83,20.83,0,0,0-3.058,5.334,35.291,35.291,0,0,0-1.767,5.873,41.453,41.453,0,0,0-.65,4.957c-.106,1.418-.146,2.565-.166,3.359a5.7,5.7,0,0,0,.026,1.235" transform="translate(-47.473 -54.368)" fill="#1e1e1e"/>
        <path id="Path_1096" data-name="Path 1096" d="M334.821,399.88a2.423,2.423,0,0,0,.033-.568c0-.426,0-.963,0-1.623,0-1.408,0-3.446.072-5.963.125-5.034.559-10.451,1.4-18.088.793-7.181,1.857-15.539,2.979-20.973.241-1.236.483-2.348.712-3.322s.4-1.817.583-2.5c.154-.641.28-1.164.379-1.578a2.4,2.4,0,0,0,.1-.559,2.4,2.4,0,0,0-.2.532c-.124.408-.28.923-.471,1.555-.209.674-.424,1.511-.668,2.482s-.523,2.079-.786,3.313a184.108,184.108,0,0,0-3.133,19.461c-.838,7.653-1.216,14.622-1.249,19.668-.03,2.524.023,4.566.088,5.975.04.659.073,1.2.1,1.622a2.43,2.43,0,0,0,.069.564" transform="translate(-47.473 -48.913)" fill="#1e1e1e"/>
        <path id="Path_1097" data-name="Path 1097" d="M331.931,387.12a10.727,10.727,0,0,0-.012-1.7c-.063-1.089-.212-2.664-.519-4.593a60.555,60.555,0,0,0-1.493-6.691,54.988,54.988,0,0,0-2.8-7.919,42.179,42.179,0,0,0-8.218-12.8,20.874,20.874,0,0,0-1.933-1.8c-.3-.251-.559-.5-.826-.7l-.75-.517a10.726,10.726,0,0,0-1.428-.913,50.352,50.352,0,0,1,4.678,4.173,44.436,44.436,0,0,1,8.013,12.75,62.559,62.559,0,0,1,2.814,7.846,68.068,68.068,0,0,1,1.589,6.625c.35,1.909.553,3.468.675,4.548a10.956,10.956,0,0,0,.208,1.679" transform="translate(-44.549 -49.593)" fill="#1e1e1e"/>
        <path id="Path_1098" data-name="Path 1098" d="M319.765,420.97l1.346,18.451h23.7l1.346-18.451Z" transform="translate(-45.374 -59.734)" fill="#1e1e1e"/>
        <rect id="Rectangle_358" data-name="Rectangle 358" width="31.514" height="7.272" transform="translate(272.102 353.963)" fill="#1e1e1e"/>
        <path id="Path_1099" data-name="Path 1099" d="M317.1,441.649v2.016H348.09v-2.016Z" transform="translate(-44.995 -62.669)" fill="#04045b"/>
        <path id="Path_1100" data-name="Path 1100" d="M320.274,447.546,318.822,444h28.384l-1.694,3.548Z" transform="translate(-45.24 -63.002)" fill="#04045b"/>
        <path id="Path_1101" data-name="Path 1101" d="M345.788,427.568a.786.786,0,0,1-.111.169l-.354.47-1.382,1.767-.061.079-.059-.082-3.393-4.692h.2l-3.34,4.729-.1.148-.118-.139L333.1,425.3l.228,0-.218.274-3.541,4.441-.118.148-.109-.154L326,425.281l.194.009-4.115,4.689-.074.083-.055-.094-1.289-2.165-.33-.577a.115.115,0,1,1,.037-.023l.366.555c.329.517.783,1.23,1.353,2.125l-.129-.01,4.048-4.746.1-.12.093.13,3.371,4.707-.227-.007,3.533-4.447.218-.274.112-.142.116.139c1.387,1.656,2.721,3.252,3.951,4.722l-.222.009c1.219-1.7,2.355-3.284,3.373-4.706l.1-.137.1.137,3.321,4.743-.121,0,1.436-1.722.384-.445a.8.8,0,0,1,.142-.143" transform="translate(-45.44 -60.303)" fill="#e0e0e0"/>
        <path id="Path_1102" data-name="Path 1102" d="M346.524,420.8c0,.082-5.939.148-13.264.148s-13.265-.066-13.265-.148,5.938-.148,13.265-.148,13.264.066,13.264.148" transform="translate(-45.406 -59.69)" fill="#04045b"/>
        <path id="Path_1103" data-name="Path 1103" d="M347.539,444.2c0,.082-6.455.148-14.415.148s-14.417-.066-14.417-.148,6.454-.148,14.417-.148,14.415.066,14.415.148" transform="translate(-45.224 -63.01)" fill="#1e1e1e"/>
        <path id="Path_1104" data-name="Path 1104" d="M79.458,375.341c-.066.081-.606-.245-1.209-.727s-1.038-.939-.974-1.02.606.245,1.209.727,1.038.94.974,1.02" transform="translate(-10.964 -53.01)" fill="#1e1e1e"/>
        <path id="Path_1105" data-name="Path 1105" d="M96.052,345.083a19.009,19.009,0,0,0-.56-6.83,6.732,6.732,0,0,0-4.656-4.652c-2.568-.532-5.2,1.09-6.638,3.281s-1.933,4.854-2.359,7.442a262.83,262.83,0,0,0-3.221,54.019l10.508,1.474c4.616-18.858,6.088-35.339,6.927-54.735" transform="translate(-11.12 -47.323)" fill="#04045b"/>
        <path id="Path_1106" data-name="Path 1106" d="M89.919,333.524a.61.61,0,0,1-.047.167l-.174.477q-.256.665-.7,1.815c-.146.4-.341.824-.5,1.313s-.328,1.023-.51,1.592l-.59,1.828q-.257.987-.542,2.083a91.375,91.375,0,0,0-2.029,10.4c-.569,3.952-.941,8.329-1.235,12.927-.537,9.207-.621,17.565-.858,23.608-.112,3.021-.216,5.467-.331,7.154q-.084,1.229-.132,1.944c-.017.2-.032.368-.044.5a.623.623,0,0,1-.027.171.572.572,0,0,1-.011-.173c0-.136,0-.3.007-.506q.022-.714.061-1.946c.071-1.689.134-4.133.212-7.156.169-6.043.211-14.4.749-23.622.293-4.606.678-8.993,1.267-12.954A86.871,86.871,0,0,1,86.6,342.731q.3-1.094.571-2.084.327-.967.619-1.825t.541-1.587c.167-.487.372-.913.53-1.305l.766-1.793.209-.462a.6.6,0,0,1,.082-.152" transform="translate(-11.663 -47.326)" fill="#1e1e1e"/>
        <path id="Path_1107" data-name="Path 1107" d="M91.924,333.53a7.517,7.517,0,0,1,1.284,2.174,16.089,16.089,0,0,1,.959,6.8c-.28,5.807-.8,13.808-1.491,22.642s-1.465,16.822-2.085,22.6c-.31,2.887-.578,5.221-.776,6.832q-.151,1.17-.239,1.855c-.028.192-.052.35-.071.481a.556.556,0,0,1-.038.163.61.61,0,0,1,0-.167c.009-.131.021-.291.034-.485q.062-.687.168-1.862c.159-1.65.383-3.98.657-6.843.553-5.778,1.28-13.766,1.975-22.6s1.253-16.833,1.6-22.621a16.449,16.449,0,0,0-.829-6.734,14.138,14.138,0,0,0-1.148-2.228" transform="translate(-12.694 -47.327)" fill="#1e1e1e"/>
        <path id="Path_1108" data-name="Path 1108" d="M100.183,364.992a11.264,11.264,0,0,1-3.856-1.383,11.264,11.264,0,0,1,3.856,1.383" transform="translate(-13.668 -51.592)" fill="#1e1e1e"/>
        <path id="Path_1109" data-name="Path 1109" d="M101.645,352.741a12.5,12.5,0,0,1-3.943,1.764,12.5,12.5,0,0,1,3.943-1.764" transform="translate(-13.863 -50.051)" fill="#1e1e1e"/>
        <path id="Path_1110" data-name="Path 1110" d="M101.018,342.5a6.56,6.56,0,0,1-3.107-.215,6.561,6.561,0,0,1,3.107.215" transform="translate(-13.893 -48.555)" fill="#1e1e1e"/>
        <path id="Path_1111" data-name="Path 1111" d="M88.605,335.574c-.088.055-.548-.518-1.028-1.28s-.8-1.425-.71-1.481.548.518,1.028,1.281.8,1.425.71,1.48" transform="translate(-12.324 -47.225)" fill="#1e1e1e"/>
        <path id="Path_1112" data-name="Path 1112" d="M84.227,342.153a5.989,5.989,0,0,1-2.977-.063,5.989,5.989,0,0,1,2.977.063" transform="translate(-11.529 -48.519)" fill="#1e1e1e"/>
        <path id="Path_1113" data-name="Path 1113" d="M81.225,354.31a3.652,3.652,0,0,1-1.57-.431c-.829-.335-1.469-.683-1.43-.779a3.656,3.656,0,0,1,1.571.431c.828.334,1.468.683,1.43.779" transform="translate(-11.099 -50.1)" fill="#1e1e1e"/>
        <path id="Path_1114" data-name="Path 1114" d="M80.945,364.869c.021.1-.578.313-1.337.472s-1.393.207-1.414.106.577-.313,1.337-.473,1.393-.206,1.414-.1" transform="translate(-11.095 -51.766)" fill="#1e1e1e"/>
        <path id="Path_1115" data-name="Path 1115" d="M79.509,381.822c.018.1-.617.3-1.419.445a3.071,3.071,0,0,1-1.486.076c-.018-.1.618-.3,1.42-.445a3.066,3.066,0,0,1,1.485-.076" transform="translate(-10.87 -54.171)" fill="#1e1e1e"/>
        <path id="Path_1116" data-name="Path 1116" d="M78.632,391.187c.049.092-.481.467-1.183.838s-1.311.6-1.359.506.481-.467,1.183-.838,1.31-.6,1.359-.506" transform="translate(-10.796 -55.505)" fill="#1e1e1e"/>
        <path id="Path_1117" data-name="Path 1117" d="M86.405,401.31c-.09.051-.552-.586-1.031-1.424a4.241,4.241,0,0,1-.706-1.611c.09-.051.552.586,1.032,1.424a4.23,4.23,0,0,1,.705,1.611" transform="translate(-12.012 -56.514)" fill="#1e1e1e"/>
        <path id="Path_1118" data-name="Path 1118" d="M88.474,384.159c.073.074-.442.7-1.149,1.389s-1.339,1.2-1.412,1.122.442-.7,1.149-1.389,1.339-1.2,1.412-1.122" transform="translate(-12.19 -54.51)" fill="#1e1e1e"/>
        <path id="Path_1119" data-name="Path 1119" d="M88.1,374.566c-.076.07-.553-.321-1.066-.874s-.867-1.059-.791-1.129.553.321,1.067.874.867,1.059.79,1.129" transform="translate(-12.237 -52.864)" fill="#1e1e1e"/>
        <path id="Path_1120" data-name="Path 1120" d="M89.563,363.064c.077.07-.352.674-.958,1.35s-1.16,1.169-1.237,1.1.352-.674.958-1.351,1.16-1.169,1.237-1.1" transform="translate(-12.396 -51.517)" fill="#1e1e1e"/>
        <path id="Path_1121" data-name="Path 1121" d="M90.381,354.083c-.073.075-.671-.4-1.336-1.05s-1.146-1.243-1.073-1.317.671.4,1.337,1.049,1.146,1.244,1.073,1.318" transform="translate(-12.482 -49.906)" fill="#1e1e1e"/>
        <path id="Path_1122" data-name="Path 1122" d="M92.179,342.866a3.669,3.669,0,0,1-.671,1.491c-.46.771-.9,1.352-.993,1.3a3.674,3.674,0,0,1,.67-1.491c.46-.771.9-1.352.994-1.3" transform="translate(-12.842 -48.651)" fill="#1e1e1e"/>
        <path id="Path_1123" data-name="Path 1123" d="M95.357,332.109a3.554,3.554,0,0,1-.594,1.493c-.419.775-.832,1.364-.923,1.315a3.546,3.546,0,0,1,.594-1.493c.419-.776.832-1.364.923-1.315" transform="translate(-13.313 -47.125)" fill="#1e1e1e"/>
        <path id="Path_1124" data-name="Path 1124" d="M98.852,336.99c.045.094-.376.388-.939.657s-1.056.412-1.1.318.376-.387.939-.657,1.056-.412,1.1-.318" transform="translate(-13.737 -47.814)" fill="#1e1e1e"/>
        <path id="Path_1125" data-name="Path 1125" d="M98.641,375.36a6.413,6.413,0,0,1-3.837-1.637,10.394,10.394,0,0,1,1.929.794,10.392,10.392,0,0,1,1.908.844" transform="translate(-13.452 -53.028)" fill="#1e1e1e"/>
        <path id="Path_1126" data-name="Path 1126" d="M97.334,383.807c.02.1-.614.31-1.413.464a3.073,3.073,0,0,1-1.485.1c-.019-.1.614-.31,1.414-.464a3.057,3.057,0,0,1,1.485-.1" transform="translate(-13.4 -54.453)" fill="#1e1e1e"/>
        <path id="Path_1127" data-name="Path 1127" d="M95.583,397.3a5.949,5.949,0,0,1-2.6-3.283,12.345,12.345,0,0,1,1.3,1.645,12.335,12.335,0,0,1,1.306,1.638" transform="translate(-13.192 -55.91)" fill="#1e1e1e"/>
        <path id="Path_1128" data-name="Path 1128" d="M76.33,403.959c-.067-.079.36-.554.953-1.062s1.13-.856,1.2-.777-.36.554-.953,1.062-1.13.856-1.2.777" transform="translate(-10.83 -57.058)" fill="#1e1e1e"/>
        <path id="Path_1129" data-name="Path 1129" d="M69.314,372.87c-.684-2.136-1.968-4.625-4.21-4.658a3.727,3.727,0,0,0-3.153,2.11,7.789,7.789,0,0,0-.852,3.866,100.766,100.766,0,0,0,4.819,27.99h8.205a97.494,97.494,0,0,0-4.81-29.308" transform="translate(-8.669 -52.248)" fill="#04045b"/>
        <path id="Path_1130" data-name="Path 1130" d="M51.05,356.767a9.12,9.12,0,0,0-8.542-7.295c-3.626.636-5.033,4.206-5.464,7.863s.7,7.3,1.826,10.8q5.4,16.889,10.8,33.779L59.877,400.8c-3.23-15.085-5.085-29.069-8.827-44.036" transform="translate(-5.243 -49.589)" fill="#04045b"/>
        <path id="Path_1131" data-name="Path 1131" d="M65.54,368.212a8.56,8.56,0,0,0-.7,1.161A7.657,7.657,0,0,0,64.46,373c.16,1.559.338,3.438.6,5.5s.639,4.32,1.1,6.676c.928,4.714,1.973,8.943,2.636,12.026.336,1.54.59,2.791.75,3.659.068.4.124.729.172,1a1.289,1.289,0,0,1,.034.354,1.274,1.274,0,0,1-.109-.339c-.065-.268-.144-.593-.24-.986-.218-.914-.51-2.14-.865-3.63-.729-3.065-1.816-7.285-2.747-12.013-.462-2.363-.825-4.632-1.074-6.705-.13-1.036-.217-2.024-.3-2.949s-.175-1.779-.219-2.571a7.452,7.452,0,0,1,.516-3.706,3.251,3.251,0,0,1,.828-1.1" transform="translate(-9.105 -52.248)" fill="#1e1e1e"/>
        <path id="Path_1132" data-name="Path 1132" d="M43.088,349.134a13.743,13.743,0,0,0-1.233,1.658,11.638,11.638,0,0,0-1.554,5.341,24.681,24.681,0,0,0,1.263,8.217c.9,3.038,1.879,6.371,2.912,9.87,2.035,7,3.877,13.328,5.224,17.958.643,2.273,1.167,4.127,1.542,5.454q.25.927.4,1.488a2.908,2.908,0,0,1,.116.526,2.766,2.766,0,0,1-.188-.5l-.469-1.468-1.657-5.42c-1.374-4.623-3.253-10.943-5.33-17.927-1.023-3.5-2-6.841-2.885-9.882a24.423,24.423,0,0,1-1.2-8.33,11.453,11.453,0,0,1,1.695-5.4,6.29,6.29,0,0,1,1.358-1.58" transform="translate(-5.675 -49.541)" fill="#1e1e1e"/>
        <path id="Path_1133" data-name="Path 1133" d="M58.482,399.7a2.763,2.763,0,0,1-.231-.489c-.135-.328-.352-.8-.582-1.436-.487-1.255-1.11-3.1-1.755-5.421s-1.287-5.113-1.9-8.232c-.591-3.125-1.241-6.553-1.922-10.153-.709-3.594-1.5-6.994-2.417-10.028a55.622,55.622,0,0,0-2.976-7.865,41.681,41.681,0,0,0-2.752-4.958c-.351-.572-.669-.985-.859-1.284a2.858,2.858,0,0,1-.286-.459,2.839,2.839,0,0,1,.346.414c.21.285.549.685.922,1.247a37.267,37.267,0,0,1,2.869,4.925A53.2,53.2,0,0,1,50,363.84,100.869,100.869,0,0,1,52.458,373.9c.671,3.6,1.311,7.033,1.893,10.16.6,3.117,1.206,5.91,1.82,8.229s1.192,4.173,1.636,5.44c.209.638.4,1.122.516,1.458a3.063,3.063,0,0,1,.16.517" transform="translate(-6.073 -49.575)" fill="#1e1e1e"/>
        <path id="Path_1134" data-name="Path 1134" d="M38.975,369.252c.025.1-.53.322-1.24.5s-1.3.229-1.328.129.53-.322,1.24-.494,1.3-.229,1.328-.13" transform="translate(-5.166 -52.389)" fill="#1e1e1e"/>
        <path id="Path_1135" data-name="Path 1135" d="M37.569,361.11a5.024,5.024,0,0,1-1.721.186,5.034,5.034,0,0,1-1.731-.051,3.523,3.523,0,0,1,1.716-.324,3.525,3.525,0,0,1,1.736.189" transform="translate(-4.841 -51.212)" fill="#1e1e1e"/>
        <path id="Path_1136" data-name="Path 1136" d="M39.11,353.413c-.067.079-.621-.281-1.238-.8s-1.063-1.012-1-1.091.621.281,1.238.8,1.062,1.012,1,1.091" transform="translate(-5.232 -49.878)" fill="#1e1e1e"/>
        <path id="Path_1137" data-name="Path 1137" d="M43.056,346.864c.1.023.075.519.059,1.12s-.019,1.1-.124,1.114-.271-.483-.251-1.125.217-1.133.316-1.109" transform="translate(-6.064 -49.219)" fill="#1e1e1e"/>
        <path id="Path_1138" data-name="Path 1138" d="M50.286,350.1c.085.059-.165.562-.557,1.123s-.78.967-.865.907.165-.562.557-1.122.78-.967.865-.908" transform="translate(-6.931 -49.677)" fill="#1e1e1e"/>
        <path id="Path_1139" data-name="Path 1139" d="M54.921,358.453c.039.1-.489.4-1.181.684s-1.283.432-1.321.336.489-.4,1.18-.684,1.283-.432,1.322-.336" transform="translate(-7.438 -50.859)" fill="#1e1e1e"/>
        <path id="Path_1140" data-name="Path 1140" d="M57.7,367.054a3.086,3.086,0,0,1-1.618.706,3.093,3.093,0,0,1-1.764.061,6.659,6.659,0,0,1,1.681-.427,6.706,6.706,0,0,1,1.7-.34" transform="translate(-7.707 -52.08)" fill="#1e1e1e"/>
        <path id="Path_1141" data-name="Path 1141" d="M44.845,364.257c-.1-.031-.027-.541.16-1.139s.42-1.058.518-1.027.027.541-.16,1.14-.42,1.057-.518,1.026" transform="translate(-6.357 -51.379)" fill="#1e1e1e"/>
        <path id="Path_1142" data-name="Path 1142" d="M46.718,374.93a3.531,3.531,0,0,1,.462-1.534c.35-.806.711-1.426.806-1.384a3.533,3.533,0,0,1-.462,1.534c-.35.806-.711,1.425-.806,1.384" transform="translate(-6.626 -52.787)" fill="#1e1e1e"/>
        <path id="Path_1143" data-name="Path 1143" d="M41.63,378.213a3.705,3.705,0,0,1-1.47-.323c-.783-.246-1.414-.469-1.392-.572a2.756,2.756,0,0,1,1.5.214c.8.25,1.4.587,1.358.681" transform="translate(-5.501 -53.534)" fill="#1e1e1e"/>
        <path id="Path_1144" data-name="Path 1144" d="M44.406,387.171c.06.084-.377.5-.977.928s-1.134.706-1.2.622.378-.5.977-.928,1.134-.706,1.194-.622" transform="translate(-5.992 -54.936)" fill="#1e1e1e"/>
        <path id="Path_1145" data-name="Path 1145" d="M46.487,395.943c.025.1-.517.319-1.208.487s-1.272.222-1.3.122.517-.318,1.208-.487,1.272-.222,1.3-.122" transform="translate(-6.241 -56.176)" fill="#1e1e1e"/>
        <path id="Path_1146" data-name="Path 1146" d="M58.1,374.387c.052.087-.41.456-1.084.708s-1.264.283-1.282.184.511-.292,1.15-.535,1.163-.449,1.216-.357" transform="translate(-7.908 -53.121)" fill="#1e1e1e"/>
        <path id="Path_1147" data-name="Path 1147" d="M59.765,387.864c-.044.094-.6-.073-1.231-.372s-1.115-.618-1.071-.711.595.072,1.231.372,1.115.618,1.071.711" transform="translate(-8.153 -54.879)" fill="#1e1e1e"/>
        <path id="Path_1148" data-name="Path 1148" d="M62.554,397.613a3.871,3.871,0,0,1-1.625-.435c-.86-.337-1.526-.688-1.488-.785a3.9,3.9,0,0,1,1.625.436,3.884,3.884,0,0,1,1.488.784" transform="translate(-8.434 -56.243)" fill="#1e1e1e"/>
        <path id="Path_1149" data-name="Path 1149" d="M47.369,405.1c-.051-.094.619-.544,1.392-1.155s1.371-1.151,1.451-1.079-.414.744-1.219,1.374a3.367,3.367,0,0,1-1.624.86" transform="translate(-6.721 -57.165)" fill="#1e1e1e"/>
        <path id="Path_1150" data-name="Path 1150" d="M54.937,400.1c-.106.012-.251-.551-.507-1.206s-.523-1.171-.435-1.233.514.39.785,1.1.257,1.334.157,1.341" transform="translate(-7.659 -56.426)" fill="#1e1e1e"/>
        <path id="Path_1151" data-name="Path 1151" d="M52.767,388.549c-.06.084-.489-.119-.957-.456s-.8-.676-.737-.76.489.119.957.456.8.676.737.76" transform="translate(-7.246 -54.959)" fill="#1e1e1e"/>
        <path id="Path_1152" data-name="Path 1152" d="M70.713,370.333c.062.083-.355.5-.932.921s-1.092.7-1.154.618.355-.5.932-.92,1.092-.7,1.154-.619" transform="translate(-9.737 -52.547)" fill="#1e1e1e"/>
        <path id="Path_1153" data-name="Path 1153" d="M73.3,377.7c.009.1-.644.238-1.452.149s-1.417-.36-1.386-.456.657,0,1.426.082,1.4.118,1.412.224" transform="translate(-9.999 -53.545)" fill="#1e1e1e"/>
        <path id="Path_1154" data-name="Path 1154" d="M61.648,379.41c.022.1-.583.316-1.364.366s-1.41-.082-1.4-.182.624-.141,1.376-.193,1.366-.1,1.388.009" transform="translate(-8.355 -53.828)" fill="#1e1e1e"/>
        <path id="Path_1155" data-name="Path 1155" d="M62.731,372.23c-.008.1-.619.116-1.287-.194s-1.056-.78-.986-.85.532.233,1.143.509,1.144.429,1.13.535" transform="translate(-8.578 -52.668)" fill="#1e1e1e"/>
        <path id="Path_1156" data-name="Path 1156" d="M74.345,385.45c-.055.088-.681-.207-1.4-.658s-1.253-.888-1.2-.976.681.207,1.4.658,1.253.888,1.2.976" transform="translate(-10.18 -54.46)" fill="#1e1e1e"/>
        <rect id="Rectangle_359" data-name="Rectangle 359" width="53.418" height="9.468" transform="translate(35.177 348.859)" fill="#0603af"/>
        <path id="Path_1157" data-name="Path 1157" d="M45.643,415.392l6.5,28.293H83.976l7.106-28.293Z" transform="translate(-6.477 -58.943)" fill="#0603af"/>
        <path id="Path_1158" data-name="Path 1158" d="M94.311,417.563c0,.1-12.049.188-26.909.188s-26.912-.084-26.912-.188,12.047-.188,26.912-.188,26.909.084,26.909.188" transform="translate(-5.745 -59.224)" fill="#1e1e1e"/>
        <path id="Path_1159" data-name="Path 1159" d="M68.371,379.313c-.088.055-.453-.371-.815-.95s-.585-1.095-.5-1.15.453.371.815.951.584,1.094.5,1.149" transform="translate(-9.513 -53.525)" fill="#1e1e1e"/>
        <path id="Path_1160" data-name="Path 1160" d="M68.608,388.082c-.1-.033.027-.676.28-1.437s.537-1.352.636-1.32-.027.676-.28,1.438-.537,1.352-.636,1.319" transform="translate(-9.731 -54.676)" fill="#1e1e1e"/>
        <path id="Path_1161" data-name="Path 1161" d="M71.411,397.359c-.094.045-.493-.595-.892-1.428a3.884,3.884,0,0,1-.553-1.59c.094-.045.493.595.892,1.428a3.9,3.9,0,0,1,.553,1.59" transform="translate(-9.925 -55.955)" fill="#1e1e1e"/>
        <path id="Path_1162" data-name="Path 1162" d="M65.076,405.028c-.078-.068.24-.564.712-1.107s.916-.928,1-.86-.24.563-.712,1.106-.917.928-1,.861" transform="translate(-9.232 -57.192)" fill="#1e1e1e"/>
        <path id="Path_1163" data-name="Path 1163" d="M63.329,391.665c-.018.1-.532.1-1.148-.012s-1.1-.28-1.083-.382.532-.1,1.148.012,1.1.28,1.083.382" transform="translate(-8.67 -55.51)" fill="#1e1e1e"/>
      </g>
    </g>
    <rect id="Rectangle_361" data-name="Rectangle 361" width="126.675" height="101.018" transform="translate(113.827 283.792)" fill="#e0e0e0"/>
    <g id="Group_501" data-name="Group 501">
      <g id="Group_500" data-name="Group 500" clip-path="url(#clip-path)">
        <g id="Group_484" data-name="Group 484" transform="translate(123.055 283.651)" opacity="0.3">
          <g id="Group_483" data-name="Group 483">
            <g id="Group_482" data-name="Group 482" clip-path="url(#clip-path-5)">
              <path id="Path_1164" data-name="Path 1164" d="M143.4,330.908c14.914,5.322,31.364,6.456,47.369,6.756a42.21,42.21,0,0,1,9.878.892c3.208.836,6.312,2.635,7.96,5.512,1.793,3.131,1.6,7.053.584,10.515s-2.782,6.653-4.057,10.029a37.511,37.511,0,0,0-2,18.685,17.619,17.619,0,0,0,2.647,7.549,8.662,8.662,0,0,0,6.706,3.928c4.814.069,8.111-4.663,10.5-8.844,9.789-17.149,20.38-36.647,26.645-55.374Z" transform="translate(-143.404 -330.556)"/>
            </g>
          </g>
        </g>
        <path id="Path_1165" data-name="Path 1165" d="M182.911,431.273c-.124,0-.223-22.39-.223-50s.1-50.008.223-50.008.223,22.385.223,50.008-.1,50-.223,50" transform="translate(-25.923 -47.005)" fill="#04045b"/>
        <path id="Path_1166" data-name="Path 1166" d="M227.458,232.324c-.377-2.519-7.906-10.848-7.906-10.848s-3.764-15.109-4.894-19.565a14.733,14.733,0,0,0-1.636-3.649,29.4,29.4,0,0,0-10.991-10.6L191.612,181.8l-2.494-5.547-25.035-12.862L157.3,175.367s-16.484,5.239-18.665,8.981,1.081,53.887,1.081,53.887-6.9,28.94-8.354,34.927.469,13.132.469,13.132L144.1,270.885c3.814-4.787,12.192-6.987,18.207-6.9l51.41.227-2.046-14.4,41.568,8.084s7.153-13.947,7.718-14.228-33.5-11.342-33.5-11.342" transform="translate(-18.562 -23.185)" fill="#0603af"/>
        <path id="Path_1167" data-name="Path 1167" d="M168.334,182.831c-.361-.367,2.906,10.663,7,21.9a55.253,55.253,0,0,1,3.317,18.937v40.672l24.65-1.674-3.685-26.793s-3.005-17.283-3.847-23.856c-.77-6.019-3.417-22.34-3.417-22.34s-13.7,3.668-24.023-6.843" transform="translate(-23.882 -25.942)" fill="#fff"/>
        <path id="Path_1168" data-name="Path 1168" d="M232.079,253.807a1.536,1.536,0,0,1,0-.62,9.115,9.115,0,0,1,.324-1.657A11.125,11.125,0,0,1,240,243.919a9.185,9.185,0,0,1,1.656-.328,1.549,1.549,0,0,1,.62,0c.01.076-.863.169-2.18.628a11.836,11.836,0,0,0-7.389,7.4c-.457,1.318-.547,2.192-.624,2.182" transform="translate(-32.928 -34.561)" fill="#1e1e1e"/>
        <path id="Path_1169" data-name="Path 1169" d="M233.563,243.941a9.869,9.869,0,0,1,7.653-.63c-.027.133-1.741-.2-3.855-.015-2.114.164-3.752.771-3.8.644" transform="translate(-33.142 -34.454)" fill="#1e1e1e"/>
        <g id="Group_487" data-name="Group 487" transform="translate(116.526 231.68)" opacity="0.3">
          <g id="Group_486" data-name="Group 486">
            <g id="Group_485" data-name="Group 485" clip-path="url(#clip-path-6)">
              <path id="Path_1170" data-name="Path 1170" d="M137.934,269.991l-2.139,2.426a17.283,17.283,0,0,0,8.685,5.743,44.217,44.217,0,0,0,10.477.948,15.143,15.143,0,0,0,4.237-.4c1.394-.4,2.7-1.194,4.144-1.281a10.818,10.818,0,0,1,2.876.411,5.6,5.6,0,0,0,2.881.046,2.279,2.279,0,0,0,1.677-2.126,151.852,151.852,0,0,0-32.837-5.765" transform="translate(-135.795 -269.991)"/>
            </g>
          </g>
        </g>
        <path id="Path_1171" data-name="Path 1171" d="M213.105,272.034l-6.048-6.424-12.441-3.148s-11.4,3.415-11.674,3.406-9.922-2.636-9.922-2.636L169.649,275.6l17.378,1.191L206.869,276s1.035-.964.422-1.623,3.317,1.114,3.78,1.135,1.36.377,1.973-.365a2.619,2.619,0,0,0,.061-3.111" transform="translate(-24.073 -37.243)" fill="#ffbe9d"/>
        <path id="Path_1172" data-name="Path 1172" d="M211.276,275.764a10.745,10.745,0,0,1-1.977-.563c-1.206-.383-2.875-.894-4.741-1.372s-3.577-.832-4.817-1.08a10.631,10.631,0,0,1-2-.467,8.457,8.457,0,0,1,2.054.155,44.156,44.156,0,0,1,4.876.959A42.692,42.692,0,0,1,209.4,274.9a8.362,8.362,0,0,1,1.872.861" transform="translate(-28.059 -38.632)" fill="#eb996e"/>
        <path id="Path_1173" data-name="Path 1173" d="M217.139,272.809a26.269,26.269,0,0,1-2.761-.891c-1.694-.572-4.061-1.27-6.692-2.005a35.178,35.178,0,0,0-6.746-1.666,16.55,16.55,0,0,0-2.864.112,2.266,2.266,0,0,1,.746-.251,8.131,8.131,0,0,1,2.138-.177,29.163,29.163,0,0,1,6.849,1.551c2.633.735,5,1.487,6.678,2.138.838.322,1.507.608,1.963.817a2.617,2.617,0,0,1,.69.372" transform="translate(-28.106 -38.018)" fill="#eb996e"/>
        <path id="Path_1174" data-name="Path 1174" d="M136.434,187.813s-8.969,6.237-11.151,15.218-11.635,45.654-9.7,51.142,39.65,10.87,39.65,10.87l4.468-18.853-19.15-5.239s.243-17.464.485-24.7-4.605-28.44-4.605-28.44" transform="translate(-16.364 -26.65)" fill="#0603af"/>
        <path id="Path_1175" data-name="Path 1175" d="M166.154,259.121l6.171,1.52-3.713,14.23-6.063-.971Z" transform="translate(-23.065 -36.768)" fill="#fff"/>
        <path id="Path_1176" data-name="Path 1176" d="M115.459,261.034c.032,0-.018.313.092.888a4.189,4.189,0,0,0,1.315,2.141c1.639,1.526,4.768,2.8,8.738,3.51l.013,0,.015.005c1.814.6,3.879,1.069,6.089,1.569s4.587,1,7.1,1.512c5.017,1.025,10.569,2.1,16.452,3.206l-.257.166c.426-1.749.877-3.6,1.333-5.472,1.058-4.327,2.083-8.518,3.055-12.491l.15.259-17.02-4.859-.01,0-.009,0a16.816,16.816,0,0,0-7.423-1.3,16.4,16.4,0,0,0-5.6,1.315,18.949,18.949,0,0,0-3.219,1.783l-.779.568a1.611,1.611,0,0,1-.276.183,1.517,1.517,0,0,1,.243-.223c.169-.139.413-.354.753-.611a17.422,17.422,0,0,1,3.2-1.88,16.318,16.318,0,0,1,5.664-1.414,16.989,16.989,0,0,1,7.574,1.257l-.019-.007,17.043,4.779.2.056-.049.2c-.967,3.974-1.987,8.167-3.039,12.494-.457,1.874-.91,3.723-1.336,5.472l-.05.2-.207-.039c-5.885-1.109-11.434-2.2-16.451-3.254-2.509-.523-4.883-1.043-7.1-1.554s-4.268-1-6.113-1.631l.027.007c-4.012-.764-7.151-2.085-8.8-3.691a4.169,4.169,0,0,1-1.285-2.244,2.6,2.6,0,0,1-.008-.9" transform="translate(-16.379 -35.452)" fill="#1e1e1e"/>
        <path id="Path_1177" data-name="Path 1177" d="M143.567,250.429c-.052.057-.692-.529-1.842-1.3a17.6,17.6,0,0,0-10.2-2.971c-1.385.033-2.239.184-2.253.108a7.023,7.023,0,0,1,2.237-.424,15.619,15.619,0,0,1,10.4,3.028,6.99,6.99,0,0,1,1.66,1.558" transform="translate(-18.344 -34.878)" fill="#1e1e1e"/>
        <path id="Path_1178" data-name="Path 1178" d="M147.933,215.4a5.694,5.694,0,0,1,.013,1.15c-.016.74-.081,1.808-.181,3.126-.211,2.635-.6,6.27-1.293,10.247a71.319,71.319,0,0,1-2.379,10.059c-.21.629-.426,1.189-.611,1.682-.2.461-.387.871-.548,1.236a5.534,5.534,0,0,1-.588.992,5.728,5.728,0,0,1,.429-1.063l.473-1.253c.161-.5.355-1.059.544-1.689a88.756,88.756,0,0,0,2.24-10.039c.686-3.963,1.128-7.58,1.418-10.2.13-1.243.238-2.286.323-3.107a5.651,5.651,0,0,1,.16-1.139" transform="translate(-20.198 -30.564)" fill="#1e1e1e"/>
        <path id="Path_1179" data-name="Path 1179" d="M172.41,200.271c-.029.008-.089-.234-.3-.634a3.814,3.814,0,0,0-1.289-1.41,3.232,3.232,0,0,0-2.791-.408,3.6,3.6,0,0,0-2.355,2.665l-.12.611-.263-.565a59.961,59.961,0,0,1-2.622-6.625,34.826,34.826,0,0,1-1.938-11.706c0-.764.107-1.45.151-2.053.1-.6.18-1.115.274-1.531a7.288,7.288,0,0,1,.38-1.267,29.889,29.889,0,0,0-.489,4.858,37.16,37.16,0,0,0,2.048,11.563,66.333,66.333,0,0,0,2.565,6.594l-.383.046a3.932,3.932,0,0,1,2.65-2.909,3.46,3.46,0,0,1,3.029.529,3.691,3.691,0,0,1,1.269,1.554,2.575,2.575,0,0,1,.162.507c.023.118.03.18.019.183" transform="translate(-22.805 -25.165)" fill="#1e1e1e"/>
        <path id="Path_1180" data-name="Path 1180" d="M198.656,202.35a5.9,5.9,0,0,1-.2-1.021,10.659,10.659,0,0,1-.182-2.876,6.025,6.025,0,0,1,2.069-3.8,3.937,3.937,0,0,1,2.5-.9,3.4,3.4,0,0,1,2.626,1.175l-.378.217-.814-2.051c-1.6-4.043-3.027-7.711-4.037-10.374l-1.176-3.162a6.648,6.648,0,0,1-.373-1.18,6.67,6.67,0,0,1,.536,1.12l1.309,3.111c1.086,2.634,2.56,6.286,4.16,10.328.277.7.55,1.394.81,2.052l.523,1.326-.9-1.109a2.987,2.987,0,0,0-2.286-1.03,3.551,3.551,0,0,0-2.249.78,5.822,5.822,0,0,0-2.02,3.532,12.289,12.289,0,0,0,.049,2.817,4.34,4.34,0,0,1,.04,1.041" transform="translate(-28.129 -25.312)" fill="#1e1e1e"/>
        <path id="Path_1181" data-name="Path 1181" d="M217.27,208.794c.123-.017,2.061,13.029,4.331,29.135s4.01,29.182,3.888,29.2-2.061-13.025-4.331-29.138-4.01-29.18-3.888-29.2" transform="translate(-30.829 -29.627)" fill="#1e1e1e"/>
        <g id="Group_490" data-name="Group 490" transform="translate(140.131 168.88)" opacity="0.3">
          <g id="Group_489" data-name="Group 489">
            <g id="Group_488" data-name="Group 488" clip-path="url(#clip-path-7)">
              <path id="Path_1182" data-name="Path 1182" d="M163.3,196.806a26.917,26.917,0,0,0,2.138,9.691c.934-1.153,1.97-2.374,3.391-2.714,1.773-.425,3.565.672,4.846,2a8.788,8.788,0,0,0-1.547-3.7,4.339,4.339,0,0,0-3.4-1.778,3.013,3.013,0,0,0-2.864,2.334l-2.459-5.776" transform="translate(-163.303 -196.806)"/>
            </g>
          </g>
        </g>
        <path id="Path_1183" data-name="Path 1183" d="M145.034,205.743c-.083,0-.055-.9-.315-2.3a13.989,13.989,0,0,0-2.087-5.1,14.973,14.973,0,0,0-1.961-2.331,13.276,13.276,0,0,0-1.967-1.531c-1.2-.761-2.055-1.054-2.026-1.132.01-.029.227.025.615.15a4.5,4.5,0,0,1,.692.269,7.453,7.453,0,0,1,.881.441,11.69,11.69,0,0,1,2.084,1.5A13.924,13.924,0,0,1,143,198.091a12.748,12.748,0,0,1,2.027,5.3,9.03,9.03,0,0,1,.084,1.723,1.735,1.735,0,0,1-.082.628" transform="translate(-19.394 -27.434)" fill="#1e1e1e"/>
        <path id="Path_1184" data-name="Path 1184" d="M198.84,133.712a18.385,18.385,0,0,0-18.758-16.428l-.952.024c-10.249.864-15.241,10.05-14.094,20.271l2.812,35.95,1.191,1.461a19.235,19.235,0,0,0,22.832,5.381l-.788-11.565s9.828-1.788,9.7-11.657c-.064-4.767-.994-14.574-1.938-23.438" transform="translate(-23.395 -16.641)" fill="#ffbe9d"/>
        <path id="Path_1185" data-name="Path 1185" d="M193.352,176.739a23.941,23.941,0,0,1-13.024-3.451s3.223,7.022,13.044,5.881Z" transform="translate(-25.588 -24.589)" fill="#eb996e"/>
        <path id="Path_1186" data-name="Path 1186" d="M201.362,124.007a1.885,1.885,0,0,0-1.976-1.518,3.977,3.977,0,0,0,1.361-.693,1.356,1.356,0,0,0,.467-1.376c-.253-.763-1.23-.92-2-1.14a5.073,5.073,0,0,1-2.574-1.718c-.938-1.184-1.3-2.726-2.109-4a6.555,6.555,0,0,0-10.169-1.121,6.824,6.824,0,0,0-10.974,1.672,7.961,7.961,0,0,0-10.9,8.712l6.145,3.766a3.319,3.319,0,0,1,4.048-2.879c1.854.535,3.041,2.683,4.967,2.829,1.5.114,2.774-1.048,4.227-1.436a7.157,7.157,0,0,1,5.211,1.129,20.677,20.677,0,0,0,4.869,2.456,10.173,10.173,0,0,0,6.261-.746,6.535,6.535,0,0,0,2.318-1.434,2.892,2.892,0,0,0,.837-2.5" transform="translate(-23.04 -15.663)" fill="#1e1e1e"/>
        <path id="Path_1187" data-name="Path 1187" d="M169.494,124.4l28.142-.16a12.871,12.871,0,0,0-4.265-4.666,21.98,21.98,0,0,0-12.862-4.23c-4.589.047-13.771,5.893-17.006,9.148-2.589,2.6-2.512,4.794-2.512,4.794-.321,3.658,1.835,7.747,2.746,11.3.47,1.835,1.433,7.4,1.433,7.4h0c1.55-.049,2.09-1.3,1.813-2.823l-.457-6a9.08,9.08,0,0,0,2.479-10.677c-.416-.535-1.34-3.015.487-4.087" transform="translate(-22.84 -16.367)" fill="#1e1e1e"/>
        <path id="Path_1188" data-name="Path 1188" d="M165.239,140.1c-1.432-4.984-2.748-10.324-1.225-15.281l-.836-.034-.348.254a3.938,3.938,0,0,0-4.424,6.068,3.4,3.4,0,0,0-3.419,2.978,6.315,6.315,0,0,0,.906,3.287,7.661,7.661,0,0,1,1.068,3.253,2.455,2.455,0,0,1-1.873,2.539,2.811,2.811,0,0,0,3.188,1.549,5.58,5.58,0,0,1-1.932,2.439c1.833,1.249,4.35.821,6.343-.149a5.386,5.386,0,0,0,2.827-2.621,6.75,6.75,0,0,0-.275-4.282" transform="translate(-21.99 -17.707)" fill="#1e1e1e"/>
        <path id="Path_1189" data-name="Path 1189" d="M165.334,149.361c-.17-.069-6.83-1.83-6.442,4.908s7.075,4.959,7.075,4.765-.633-9.673-.633-9.673" transform="translate(-22.544 -21.157)" fill="#ffbe9d"/>
        <path id="Path_1190" data-name="Path 1190" d="M164.738,156.95c-.031-.019-.113.089-.306.192a1.174,1.174,0,0,1-.876.069,2.91,2.91,0,0,1-1.495-2.529,3.9,3.9,0,0,1,.232-1.7,1.358,1.358,0,0,1,.832-.951.6.6,0,0,1,.711.281c.1.184.066.32.1.329.02.016.138-.121.068-.4a.746.746,0,0,0-.289-.408.89.89,0,0,0-.659-.134,1.653,1.653,0,0,0-1.166,1.116,3.987,3.987,0,0,0-.3,1.9,3.054,3.054,0,0,0,1.88,2.812,1.262,1.262,0,0,0,1.064-.24c.2-.178.226-.332.2-.343" transform="translate(-22.927 -21.524)" fill="#eb996e"/>
        <path id="Path_1191" data-name="Path 1191" d="M158.224,140.522c-.02.014-.189-.254-.124-.783a2.534,2.534,0,0,1,1.26-1.757,7.753,7.753,0,0,1,3.087-.746,3.8,3.8,0,0,0,3.076-1.563,5.6,5.6,0,0,0,.528-3.538c-.16-1.132-.461-2.16-.608-3.045a5,5,0,0,1,.046-2.891,12.936,12.936,0,0,0,.317,2.816c.191.861.525,1.86.723,3.052a5.891,5.891,0,0,1-.559,3.879,3.336,3.336,0,0,1-1.606,1.359,6.764,6.764,0,0,1-1.862.409,8.037,8.037,0,0,0-2.964.59,2.446,2.446,0,0,0-1.239,1.472,5.945,5.945,0,0,0-.076.744" transform="translate(-22.432 -17.907)" fill="#04045b"/>
        <path id="Path_1192" data-name="Path 1192" d="M156.313,137.455c-.027.01-.148-.192-.209-.609a2.929,2.929,0,0,1,.336-1.733,3.056,3.056,0,0,1,.8-.962,3.455,3.455,0,0,1,1.293-.6,3.735,3.735,0,0,0,1.28-.525,1.552,1.552,0,0,0,.507-1.236c.02-.513-.058-1.054-.046-1.594a7.913,7.913,0,0,1,.173-1.53,7.333,7.333,0,0,1,.966-2.41,1.858,1.858,0,0,1,1.492-.948c.446,0,.633.205.613.222-.018.041-.225-.076-.6-.018a1.712,1.712,0,0,0-1.194.942,7.791,7.791,0,0,0-.806,2.306,7.994,7.994,0,0,0-.133,1.439c-.007.5.076,1.025.057,1.612a2.049,2.049,0,0,1-.712,1.618,3.974,3.974,0,0,1-1.471.589,2.792,2.792,0,0,0-1.9,1.284,3.78,3.78,0,0,0-.45,2.159" transform="translate(-22.148 -17.78)" fill="#04045b"/>
        <path id="Path_1193" data-name="Path 1193" d="M197.353,118.17c.042.009-.509.367-1.392-.048a3.983,3.983,0,0,1-1.273-1.084,5.447,5.447,0,0,0-1.565-1.388,4.679,4.679,0,0,0-5.083.337c-.833.6-1.571,1.448-2.54,2.155a4.355,4.355,0,0,1-1.687.779,3.643,3.643,0,0,1-1.919-.181c-1.215-.437-2.174-1.181-3.222-1.562a8.513,8.513,0,0,0-3.164-.57,8.363,8.363,0,0,0-5.1,1.757,9.209,9.209,0,0,0-2.41,2.824c-.42.783-.572,1.258-.615,1.243-.017-.005.006-.128.067-.359a7.209,7.209,0,0,1,.366-.977,8.723,8.723,0,0,1,2.361-3.022,8.592,8.592,0,0,1,5.328-1.95,8.859,8.859,0,0,1,3.356.573c1.131.411,2.109,1.158,3.211,1.545a3.126,3.126,0,0,0,1.648.165,3.864,3.864,0,0,0,1.485-.686c.906-.648,1.661-1.491,2.555-2.127a4.9,4.9,0,0,1,2.945-.975,5.2,5.2,0,0,1,2.607.708,5.614,5.614,0,0,1,1.606,1.521,3.979,3.979,0,0,0,1.14,1.091,1.915,1.915,0,0,0,1.3.23" transform="translate(-23.75 -16.264)" fill="#04045b"/>
        <path id="Path_1194" data-name="Path 1194" d="M287.5,313.624a13.19,13.19,0,0,0-9.481-3.128l-5.8,18.428c4.249.187,8.488,2.379,12.591,1.255a8.98,8.98,0,0,0,6.25-7.381,10.672,10.672,0,0,0-3.563-9.175" transform="translate(-38.627 -44.055)" fill="#0603af"/>
        <path id="Path_1195" data-name="Path 1195" d="M278.295,309.952c.012-.149.63-.264,1.757-.253a14.319,14.319,0,0,1,4.747.894,12.905,12.905,0,0,1,5.778,4.489,11.927,11.927,0,0,1,1.928,4,10.537,10.537,0,0,1,.143,4.835,9.762,9.762,0,0,1-2.108,4.4,9.2,9.2,0,0,1-3.741,2.595,13.378,13.378,0,0,1-7.294.471,22.785,22.785,0,0,1-4.547-1.412c-1.022-.441-1.556-.765-1.512-.911s.67-.1,1.757.076,2.635.511,4.521.682a13.009,13.009,0,0,0,6.3-.815,7.436,7.436,0,0,0,2.837-2.093,7.915,7.915,0,0,0,1.6-3.442,9.5,9.5,0,0,0-1.57-7.2,12.394,12.394,0,0,0-4.724-4.219,21.472,21.472,0,0,0-4.23-1.48c-1.055-.271-1.653-.451-1.64-.608" transform="translate(-38.801 -43.945)" fill="#f5f5f5"/>
        <path id="Path_1196" data-name="Path 1196" d="M214.39,390.549l-12.615,35.343,43.892,15.92c1.264-4.285-18.39-20.939-18.39-20.939l9.012-22.313Z" transform="translate(-28.631 -55.418)" fill="#0603af"/>
        <g id="Group_493" data-name="Group 493" transform="translate(183.771 358.614)" opacity="0.6">
          <g id="Group_492" data-name="Group 492">
            <g id="Group_491" data-name="Group 491" clip-path="url(#clip-path-8)">
              <path id="Path_1197" data-name="Path 1197" d="M216.152,417.93a1.906,1.906,0,0,0-1.981,1.6,1.833,1.833,0,0,0,1.563,1.978,2.01,2.01,0,0,0,2.089-1.7c.009-.937-.928-2.011-1.855-1.878" transform="translate(-214.159 -417.915)" fill="#fff"/>
            </g>
          </g>
        </g>
        <path id="Path_1198" data-name="Path 1198" d="M201.775,431.146l1.273-3.567,41.693,16.631s1.646,1.559.925,2.856Z" transform="translate(-28.631 -60.672)" fill="#fff"/>
        <path id="Path_1199" data-name="Path 1199" d="M231.61,425.819c-.085.212-1.192-.08-2.5.227-1.313.272-2.192,1-2.359.847-.183-.113.6-1.279,2.187-1.623s2.785.368,2.668.548" transform="translate(-32.172 -60.331)" fill="#1e1e1e"/>
        <path id="Path_1200" data-name="Path 1200" d="M236.311,430.047c-.027.226-1.086.253-2.144.9-1.075.611-1.615,1.525-1.824,1.438-.214-.039.094-1.349,1.422-2.122s2.616-.418,2.546-.212" transform="translate(-32.96 -60.984)" fill="#1e1e1e"/>
        <path id="Path_1201" data-name="Path 1201" d="M237.68,437.1c-.211-.025-.121-1.2.855-2.178s2.148-1.078,2.174-.867c.057.221-.822.614-1.611,1.426-.808.793-1.2,1.674-1.418,1.618" transform="translate(-33.713 -61.578)" fill="#1e1e1e"/>
        <path id="Path_1202" data-name="Path 1202" d="M233.384,419.439c-.16.163-1.037-.489-2.278-.847-1.234-.382-2.324-.318-2.369-.541-.068-.2,1.14-.659,2.6-.219s2.217,1.477,2.051,1.607" transform="translate(-32.457 -59.263)" fill="#1e1e1e"/>
        <path id="Path_1203" data-name="Path 1203" d="M234.175,412.293a4.377,4.377,0,0,1-2.194-.809,10.457,10.457,0,0,1-2.043-1.54,11.005,11.005,0,0,1-1.02-1.128,2.881,2.881,0,0,1-.475-.758.992.992,0,0,1,.315-1.176,1.251,1.251,0,0,1,1.117-.149,3.031,3.031,0,0,1,.783.413,8.4,8.4,0,0,1,1.2.965,8.228,8.228,0,0,1,1.544,2.065,3.894,3.894,0,0,1,.645,2.254c-.123.035-.375-.815-1.128-1.969a9.368,9.368,0,0,0-1.56-1.817,8.715,8.715,0,0,0-1.122-.846c-.42-.291-.814-.438-1.008-.274-.072.063-.089.092-.041.263a2.338,2.338,0,0,0,.351.554,12.211,12.211,0,0,0,.921,1.085,12.9,12.9,0,0,0,1.829,1.585,16.145,16.145,0,0,1,1.89,1.281" transform="translate(-32.404 -57.705)" fill="#1e1e1e"/>
        <path id="Path_1204" data-name="Path 1204" d="M234.665,412.4a3.722,3.722,0,0,1,.19-2.333,7.594,7.594,0,0,1,1.172-2.3,7.675,7.675,0,0,1,1.044-1.132,1.934,1.934,0,0,1,1.8-.6,1.092,1.092,0,0,1,.7.946,3.133,3.133,0,0,1-.067.888,5.2,5.2,0,0,1-.535,1.48,5.374,5.374,0,0,1-1.763,1.931c-1.27.826-2.257.758-2.249.679a19.223,19.223,0,0,0,1.918-1.131,5.392,5.392,0,0,0,1.444-1.813,4.831,4.831,0,0,0,.42-1.285c.1-.492.062-.931-.13-.946a1.339,1.339,0,0,0-1.031.441,7.765,7.765,0,0,0-.977.994,8.377,8.377,0,0,0-1.221,2.04c-.528,1.266-.59,2.151-.718,2.142" transform="translate(-33.284 -57.609)" fill="#1e1e1e"/>
        <path id="Path_1205" data-name="Path 1205" d="M161.685,280.4c-6.658.154-12.974,1.095-17.559,5.924-6.082,6.4-13.6,15.528-14.031,21.857-.638,9.457,5.067,12.268,9.233,14.574a11.559,11.559,0,0,0,6.047,1.4l76.956-.584,2.416-13.035-49.772-12.267,2.067-18.733Z" transform="translate(-18.453 -39.665)" fill="#1e1e1e"/>
        <path id="Path_1206" data-name="Path 1206" d="M184.471,279.35l24.208-1.115s41.819,2.325,50.74,10.5,7.805,17.469,4.832,26.389S235.073,381.1,235.073,381.1s2.125,3.627.93,7.248a9.569,9.569,0,0,1-6.835,6.509L205.9,386.3s-3.16-1.115-.929-4.089,3.716-3.531,3.716-3.531v-5.947s8.177-14.867,8.92-16.912,8.582-32.3,8.582-32.3l5.206-8.947s-12.592-5.92-23.5-10.211l-25.487-6.28Z" transform="translate(-25.882 -39.481)" fill="#1e1e1e"/>
        <path id="Path_1207" data-name="Path 1207" d="M228.036,401.944c-.047.057-.781-.524-2.042-1.339a27.576,27.576,0,0,0-10.866-4.132c-1.484-.229-2.418-.282-2.416-.355a9.042,9.042,0,0,1,2.457.042,23.2,23.2,0,0,1,11,4.183,9.05,9.05,0,0,1,1.865,1.6" transform="translate(-30.183 -56.2)" fill="#04045b"/>
        <path id="Path_1208" data-name="Path 1208" d="M242.815,396.377a8.075,8.075,0,0,1-1.352-1.424c-.785-.922-1.83-2.228-2.925-3.715s-2.031-2.875-2.677-3.9a8.133,8.133,0,0,1-.957-1.714,9.089,9.089,0,0,1,1.219,1.537l2.776,3.811,2.812,3.783a9.072,9.072,0,0,1,1.1,1.62" transform="translate(-33.332 -54.719)" fill="#04045b"/>
        <path id="Path_1209" data-name="Path 1209" d="M251.893,311.061c.014.073-.855.257-2.205.706a23.159,23.159,0,0,0-9.322,5.82c-1,1.016-1.543,1.715-1.6,1.671a7.966,7.966,0,0,1,1.371-1.886,19.763,19.763,0,0,1,9.461-5.907,8,8,0,0,1,2.3-.4" transform="translate(-33.879 -44.137)" fill="#04045b"/>
        <path id="Path_1210" data-name="Path 1210" d="M226.321,350.754a2.193,2.193,0,0,1,.1-.5l.358-1.418c.344-1.284.817-3.044,1.394-5.192,1.234-4.425,2.911-10.441,4.763-17.087.965-3.332,1.8-6.511,2.725-9.389a19.577,19.577,0,0,1,4.382-6.685,25.029,25.029,0,0,1,4.16-3.43c.538-.341.958-.6,1.255-.756a2.244,2.244,0,0,1,.459-.227c.021.035-.583.4-1.616,1.127a27.607,27.607,0,0,0-4.031,3.5,19.725,19.725,0,0,0-4.224,6.61c-.893,2.837-1.721,6.053-2.683,9.374-1.9,6.631-3.622,12.633-4.888,17.047l-1.53,5.154-.438,1.4a2.2,2.2,0,0,1-.182.478" transform="translate(-32.114 -43.43)" fill="#04045b"/>
        <path id="Path_1211" data-name="Path 1211" d="M201.061,304c-.123.011-.632-4.515-1.136-10.108s-.814-10.138-.692-10.15.632,4.514,1.136,10.109.814,10.138.692,10.149" transform="translate(-28.267 -40.263)" fill="#04045b"/>
        <path id="Path_1212" data-name="Path 1212" d="M152.567,319.992c-.069.033-.443-.7-1.2-1.773a17.435,17.435,0,0,0-7.95-6.212c-1.225-.475-2.025-.661-2.011-.735a6.565,6.565,0,0,1,2.118.438,15.263,15.263,0,0,1,8.107,6.334,6.559,6.559,0,0,1,.936,1.948" transform="translate(-20.065 -44.167)" fill="#04045b"/>
        <path id="Path_1213" data-name="Path 1213" d="M168.248,301.59c-.043.069-1.069-.59-2.847-1.4a26.812,26.812,0,0,0-14.877-2.134c-1.934.275-3.1.62-3.125.54a3.263,3.263,0,0,1,.8-.3,17.6,17.6,0,0,1,2.272-.547,24.348,24.348,0,0,1,15.063,2.162,17.169,17.169,0,0,1,2.027,1.165,3.13,3.13,0,0,1,.685.517" transform="translate(-20.915 -42.197)" fill="#04045b"/>
        <path id="Path_1214" data-name="Path 1214" d="M229.518,313.717a3.1,3.1,0,0,1-.6-.1l-1.708-.371-6.273-1.41c-5.3-1.187-12.624-2.777-20.747-4.387s-15.508-2.929-20.857-3.849l-6.336-1.087-1.721-.308a3.218,3.218,0,0,1-.6-.137,3.115,3.115,0,0,1,.609.048l1.733.226c1.505.2,3.679.525,6.361.946,5.365.842,12.761,2.115,20.892,3.723s15.451,3.251,20.732,4.518c2.64.632,4.773,1.162,6.242,1.548l1.69.452a3.17,3.17,0,0,1,.582.187" transform="translate(-24.219 -42.862)" fill="#04045b"/>
        <path id="Path_1215" data-name="Path 1215" d="M180.189,301.982a26.622,26.622,0,0,0-1.066-2.459,10.782,10.782,0,0,0-1.76-2.277,28.525,28.525,0,0,0-2.694-2.33,40.815,40.815,0,0,0-5.512-3.424,18.094,18.094,0,0,1-2.355-1.339,14.732,14.732,0,0,1,2.5,1.057,31.966,31.966,0,0,1,5.642,3.351,24.921,24.921,0,0,1,2.718,2.4,10.173,10.173,0,0,1,1.743,2.414,8.4,8.4,0,0,1,.687,1.882,2.094,2.094,0,0,1,.1.727" transform="translate(-23.668 -41.171)" fill="#04045b"/>
        <path id="Path_1216" data-name="Path 1216" d="M281.678,317.5c.1.1-1.188,1.4-2.191,3.374-1.024,1.969-1.33,3.772-1.465,3.747a9.8,9.8,0,0,1,3.656-7.121" transform="translate(-39.446 -45.051)" fill="#1e1e1e"/>
        <g id="Group_496" data-name="Group 496" transform="translate(187.152 184.508)" opacity="0.3">
          <g id="Group_495" data-name="Group 495">
            <g id="Group_494" data-name="Group 494" clip-path="url(#clip-path-9)">
              <path id="Path_1217" data-name="Path 1217" d="M218.1,215.019l5.508,38.8.275.62a83.249,83.249,0,0,0-5.783-39.424" transform="translate(-218.1 -215.019)"/>
            </g>
          </g>
        </g>
        <path id="Path_1218" data-name="Path 1218" d="M242.394,240.84l-17.912,31.327-44.133.959-.11,2,42.733-.318,1.355-.045,45.126.089,9.118-15.727,11.65-16.694a1.648,1.648,0,0,0-1.358-2.591l-45.045.172a1.648,1.648,0,0,0-1.424.83" transform="translate(-25.575 -34.032)" fill="#e0e0e0"/>
        <path id="Path_1219" data-name="Path 1219" d="M292.413,262.313s2.319,2.125,1.952,3.93-.244,3.148-1.952,3.27a2.6,2.6,0,0,1-2.319,2.685s.523,2.831-2.773,3.319c0,0-1.011,3.027-3.086,2.3a18.334,18.334,0,0,1-3.418-1.587l-.61-1.1s-3.056-1.149-2.3-2.876c.458-1.048,2.039-1.32,2.039-1.32a2.969,2.969,0,0,1,.2-2.684c.734-.985,3.12-.171,3.12-.171a3.366,3.366,0,0,1,.755-2.336c.813-.964,4.612,1.655,4.612,1.655l2.071-2.476Z" transform="translate(-39.417 -37.221)" fill="#ffbe9d"/>
        <path id="Path_1220" data-name="Path 1220" d="M287.678,276.943a42.324,42.324,0,0,1-7.38-4.585,42.244,42.244,0,0,1,7.38,4.585" transform="translate(-39.773 -38.646)" fill="#eb996e"/>
        <path id="Path_1221" data-name="Path 1221" d="M291,273.151a35.7,35.7,0,0,1-6.837-4.121A35.813,35.813,0,0,1,291,273.151" transform="translate(-40.321 -38.173)" fill="#eb996e"/>
        <path id="Path_1222" data-name="Path 1222" d="M287.727,266.592a12,12,0,0,1,3.133,1.664,28.5,28.5,0,0,1,2.947,1.955,9.506,9.506,0,0,1-3.183-1.575,17.369,17.369,0,0,1-2.9-2.043" transform="translate(-40.827 -37.827)" fill="#eb996e"/>
        <path id="Path_1223" data-name="Path 1223" d="M297.842,241.184a.788.788,0,0,1-.216.023l-.633.021-2.437.042-8.961.071-29.564.065h-2.152a1.776,1.776,0,0,0-1.641.775q-1.019,1.837-2.006,3.618c-1.32,2.38-2.591,4.677-3.8,6.866l-6.464,11.614-4.391,7.81-1.214,2.113-.325.544a.109.109,0,1,1-.039-.023l.287-.565,1.14-2.153,4.268-7.881,6.38-11.66,3.782-6.879q.991-1.793,2.017-3.647a2.227,2.227,0,0,1,2.012-.977h2.152l29.564.065,8.961.071,2.437.042.633.021a.787.787,0,0,1,.216.023" transform="translate(-33.19 -34.191)" fill="#1e1e1e"/>
        <path id="Path_1224" data-name="Path 1224" d="M271.306,259.447a1.9,1.9,0,1,0,2.845-.336,2.035,2.035,0,0,0-2.845.336" transform="translate(-38.411 -36.705)" fill="#fff"/>
        <g id="Group_499" data-name="Group 499" transform="translate(106.797 209.564)" opacity="0.3">
          <g id="Group_498" data-name="Group 498">
            <g id="Group_497" data-name="Group 497" clip-path="url(#clip-path-10)">
              <path id="Path_1225" data-name="Path 1225" d="M125.28,245.28c-.383.154-.819.409-.823.822a.755.755,0,0,0,.634.673,8.732,8.732,0,0,0,1.833-.491c4.638-1.024,8.463-.043,12.884,1.695l.143-.147c-1.763-3.722-9.68-4.562-14.671-2.552" transform="translate(-124.457 -244.218)"/>
            </g>
          </g>
        </g>
      </g>
    </g>
    <g id="Group_503" data-name="Group 503">
      <g id="Group_502" data-name="Group 502" clip-path="url(#clip-path)">
        <path id="Path_1226" data-name="Path 1226" d="M346.711,448.405c0,.124-77.62.223-173.347.223C77.6,448.628,0,448.529,0,448.405s77.6-.223,173.363-.223c95.727,0,173.347.1,173.347.223" transform="translate(0 -63.596)" fill="#1e1e1e"/>
      </g>
    </g>
    <g id="Group_505" data-name="Group 505">
      <g id="Group_504" data-name="Group 504" clip-path="url(#clip-path)">
        <path id="Path_1227" data-name="Path 1227" d="M96.169,123.939c.148.148,28.643-9.647,28.643-9.647L113.856,89.149l-25.365,9.7,13.953,8.017Z" transform="translate(-12.557 -12.65)" fill="#04045b"/>
        <path id="Path_1228" data-name="Path 1228" d="M113.015,91.2V56.96s39.309-7.186,67.628-6.764,57.484,5.071,57.484,5.071v32.87S149.365,80.206,113.015,91.2" transform="translate(-16.036 -7.12)" fill="#04045b"/>
        <path id="Path_1229" data-name="Path 1229" d="M112.777,97.5l15.481,17.686V94.413s-12.949,1.549-15.481,3.088" transform="translate(-16.003 -13.397)" fill="#1e1e1e"/>
        <path id="Path_1230" data-name="Path 1230" d="M112.958,58.078c.124,0,.178,7.672.121,17.134s-.2,17.133-.325,17.132-.178-7.671-.121-17.135.2-17.132.325-17.131" transform="translate(-15.979 -8.241)" fill="#1e1e1e"/>
        <path id="Path_1231" data-name="Path 1231" d="M269.607,120.879c-.148.148-28.643-9.647-28.643-9.647L251.92,86.089l25.365,9.7L263.332,103.8Z" transform="translate(-34.192 -12.216)" fill="#04045b"/>
        <path id="Path_1232" data-name="Path 1232" d="M256.445,94.69l-15.481,17.686V93.1a114.067,114.067,0,0,1,15.481,1.586" transform="translate(-34.192 -13.211)" fill="#1e1e1e"/>
        <path id="Path_1233" data-name="Path 1233" d="M258.79,56.112c.124,0,.26,7.46.3,16.663s-.02,16.666-.143,16.667-.259-7.459-.3-16.665.019-16.664.142-16.665" transform="translate(-36.699 -7.962)" fill="#1e1e1e"/>
      </g>
    </g>
    <path id="Path_1234" data-name="Path 1234" d="M279.315,59.282l2.242,2.638,6.332-2.638-1.847-2.77Z" transform="translate(-39.634 -8.019)" fill="#04045b"/>
    <g id="Group_507" data-name="Group 507">
      <g id="Group_506" data-name="Group 506" clip-path="url(#clip-path)">
        <path id="Path_1235" data-name="Path 1235" d="M274.842,44.591a3.3,3.3,0,1,1-3.3-3.3,3.3,3.3,0,0,1,3.3,3.3" transform="translate(-38.063 -5.859)" fill="#0603af"/>
        <path id="Path_1236" data-name="Path 1236" d="M189.365,102.139a1.649,1.649,0,1,1-1.648-1.649,1.649,1.649,0,0,1,1.648,1.649" transform="translate(-26.402 -14.259)" fill="#0603af"/>
        <path id="Path_1237" data-name="Path 1237" d="M100.043,73.347A1.251,1.251,0,1,1,98.792,72.1a1.251,1.251,0,0,1,1.251,1.251" transform="translate(-13.841 -10.23)" fill="#0603af"/>
        <path id="Path_1238" data-name="Path 1238" d="M95.038,56.317l3.693.225,1.753-7.254-3.449.141Z" transform="translate(-13.486 -6.994)" fill="#04045b"/>
        <path id="Path_1239" data-name="Path 1239" d="M229.442,124.868l1.242,3.485,7.361-1.232L236.563,124Z" transform="translate(-32.557 -17.596)" fill="#0603af"/>
        <path id="Path_1240" data-name="Path 1240" d="M142.281,101.585l-2.274,2.918L145,110.052l1.835-2.924Z" transform="translate(-19.867 -14.415)" fill="#04045b"/>
      </g>
    </g>
    <path id="Path_1241" data-name="Path 1241" d="M130.253,21.709l8.717,8.887,12.263-4.635L151.719,29l-5.311,10.877L151.3,48l-.409,2.423-11.867-2-7.015,7.7-1.648-1.252-1.454-9.791L117.839,39.32l-.484-2.234L128.5,34.034Z" transform="translate(-16.652 -3.08)" fill="#0603af"/>
    <g id="Group_512" data-name="Group 512">
      <g id="Group_511" data-name="Group 511" clip-path="url(#clip-path)">
        <g id="Group_510" data-name="Group 510" transform="translate(100.703 18.629)" opacity="0.3">
          <g id="Group_509" data-name="Group 509">
            <g id="Group_508" data-name="Group 508" clip-path="url(#clip-path-15)">
              <path id="Path_1242" data-name="Path 1242" d="M130.253,21.709l8.717,8.887,12.263-4.635L151.719,29l-5.311,10.877L151.3,48l-.409,2.423-11.867-2-7.015,7.7-1.648-1.252-1.454-9.791L117.839,39.32l-.484-2.234L128.5,34.034Z" transform="translate(-117.355 -21.709)"/>
            </g>
          </g>
        </g>
      </g>
    </g>
    <path id="Path_1243" data-name="Path 1243" d="M130.253,18.8l8.717,8.887,12.263-2.143-5.759,11.038,5.827,11-12.276-2.066-8.663,8.942-1.829-12.315-11.18-5.475L128.5,31.13Z" transform="translate(-16.652 -2.668)" fill="#ffb703"/>
    <path id="Path_1244" data-name="Path 1244" d="M234.087,21.709,225.37,30.6l-12.263-4.635L212.622,29l5.311,10.877L213.038,48l.409,2.423,11.867-2,7.015,7.7,1.648-1.252,1.454-9.791L246.5,39.32l.484-2.234L235.84,34.034Z" transform="translate(-30.17 -3.08)" fill="#0603af"/>
    <g id="Group_517" data-name="Group 517">
      <g id="Group_516" data-name="Group 516" clip-path="url(#clip-path)">
        <g id="Group_515" data-name="Group 515" transform="translate(182.452 18.629)" opacity="0.3">
          <g id="Group_514" data-name="Group 514">
            <g id="Group_513" data-name="Group 513" clip-path="url(#clip-path-15)">
              <path id="Path_1245" data-name="Path 1245" d="M234.087,21.709,225.37,30.6l-12.263-4.635L212.622,29l5.311,10.877L213.038,48l.409,2.423,11.867-2,7.015,7.7,1.648-1.252,1.454-9.791L246.5,39.32l.484-2.234L235.84,34.034Z" transform="translate(-212.622 -21.709)"/>
            </g>
          </g>
        </g>
      </g>
    </g>
    <path id="Path_1246" data-name="Path 1246" d="M234.156,18.8l-8.717,8.887-12.263-2.143,5.759,11.038-5.827,11,12.276-2.066,8.663,8.942,1.829-12.315,11.18-5.475L235.908,31.13Z" transform="translate(-30.239 -2.668)" fill="#ffb703"/>
    <path id="Path_1247" data-name="Path 1247" d="M181.064,3.544l7.251,14.164,16.728-.983-.568,3.9L193.852,31.868l2.881,11.771-1.424,2.8-13.718-6.958L170.1,46.207l-1.533-2.155,1.955-12.5L159.21,20.3l.26-2.91,14.762.522Z" transform="translate(-22.591 -0.503)" fill="#0603af"/>
    <g id="Group_522" data-name="Group 522">
      <g id="Group_521" data-name="Group 521" clip-path="url(#clip-path)">
        <g id="Group_520" data-name="Group 520" transform="translate(136.619 3.041)" opacity="0.3">
          <g id="Group_519" data-name="Group 519">
            <g id="Group_518" data-name="Group 518" clip-path="url(#clip-path-19)">
              <path id="Path_1248" data-name="Path 1248" d="M181.064,3.544l7.251,14.164,16.728-.983-.568,3.9L193.852,31.868l2.881,11.771-1.424,2.8-13.718-6.958L170.1,46.207l-1.533-2.155,1.955-12.5L159.21,20.3l.26-2.91,14.762.522Z" transform="translate(-159.21 -3.544)"/>
            </g>
          </g>
        </g>
      </g>
    </g>
    <path id="Path_1249" data-name="Path 1249" d="M182.056,0l-6.832,14.371-15.712,2.519,11.557,10.939-2.46,15.72,13.974-7.61,14.191,7.2-2.919-15.642,11.23-11.273-15.779-2.057Z" transform="translate(-22.634)" fill="#ffb703"/>
    <g id="Group_524" data-name="Group 524">
      <g id="Group_523" data-name="Group 523" clip-path="url(#clip-path)">
        <path id="Path_1250" data-name="Path 1250" d="M216.831,146.343l12.12,1.335a28.416,28.416,0,1,1-4.263,9.243l-.009.014Z" transform="translate(-30.768 -19.245)" fill="#fafafa"/>
        <path id="Path_1251" data-name="Path 1251" d="M216.831,146.316l7.938,10.526-.187.012.008-.014a.112.112,0,0,1,.152-.044.114.114,0,0,1,.053.126,28.258,28.258,0,0,0,.188,14.65,25.4,25.4,0,0,0,1.568,4.169c.345.684.672,1.39,1.045,2.084l1.273,2.032a28.342,28.342,0,0,0,17.284,11.607,27.95,27.95,0,0,0,11.807.054,28.577,28.577,0,0,0,11.3-5.235,27.628,27.628,0,0,0,8.2-10.06,28.138,28.138,0,0,0,2.813-12.945,28.6,28.6,0,0,0-3.179-12.29,27.65,27.65,0,0,0-7.668-9.247,28.509,28.509,0,0,0-20.291-5.8,30.491,30.491,0,0,0-8.882,2.457,28.2,28.2,0,0,0-11.213,9.315.109.109,0,0,1-.1.045l-12.108-1.442,12.131,1.229-.1.045a28.263,28.263,0,0,1,11.258-9.471A30.685,30.685,0,0,1,249.1,135.6a28.827,28.827,0,0,1,20.579,5.822,28.033,28.033,0,0,1,7.8,9.374,28.991,28.991,0,0,1,3.239,12.476,28.541,28.541,0,0,1-2.852,13.15,28.039,28.039,0,0,1-8.33,10.217,28.973,28.973,0,0,1-11.481,5.3,28.325,28.325,0,0,1-11.984-.074,28.655,28.655,0,0,1-17.487-11.81q-.65-1.044-1.282-2.062c-.375-.7-.7-1.42-1.049-2.114a25.584,25.584,0,0,1-1.568-4.223,28.351,28.351,0,0,1-.1-14.79l.205.082-.008.014a.112.112,0,0,1-.151.044.128.128,0,0,1-.036-.032l-7.759-10.659" transform="translate(-30.768 -19.218)" fill="#1e1e1e"/>
        <path id="Path_1252" data-name="Path 1252" d="M245.771,156.9a3.032,3.032,0,0,1,.021.392c.006.281.014.644.023,1.1.012.99.028,2.378.05,4.124.025,3.558.058,8.574.1,14.577l-.193-.193,20.192-.03c.051-.048-.421.421-.221.22v-1.376q0-.687,0-1.369,0-1.364,0-2.7,0-2.672.006-5.22c.008-3.389.015-6.588.022-9.526l.193.193-14.578-.1-4.124-.051-1.1-.023a2.83,2.83,0,0,1-.392-.021,1.989,1.989,0,0,1,.35-.021l1.061-.023,4.081-.05,14.7-.1.193,0v.195c.007,2.938.014,6.137.022,9.526q0,2.543.005,5.22,0,1.336,0,2.7,0,.681,0,1.369v1.376c.2-.2-.272.276-.226.227l-20.192-.03h-.195l0-.193c.04-6.055.075-11.112.1-14.7.021-1.728.038-3.1.051-4.08.009-.44.016-.791.022-1.062a1.988,1.988,0,0,1,.021-.35" transform="translate(-34.846 -22.235)" fill="#1e1e1e"/>
        <path id="Path_1253" data-name="Path 1253" d="M264.451,160.816c.29.23-2.427,4.142-6.068,8.737-.727.917-1.436,1.793-2.094,2.588l-.432.522-.482-.435c-3.154-2.841-5.294-5.022-5.1-5.246s2.663,1.575,5.932,4.282l-.915.087c.624-.823,1.314-1.713,2.041-2.63,3.642-4.6,6.83-8.135,7.12-7.9" transform="translate(-35.511 -22.818)" fill="#0603af"/>
      </g>
    </g>
  </g>
</svg>
